<?xml version="1.0" standalone="no"?>
<!DOCTYPE svg PUBLIC "-//W3C//DTD SVG 20010904//EN"
 "http://www.w3.org/TR/2001/REC-SVG-20010904/DTD/svg10.dtd">
<svg version="1.0" xmlns="http://www.w3.org/2000/svg"
 width="840.000000pt" height="1280.000000pt" viewBox="0 0 840.000000 1280.000000"
 preserveAspectRatio="xMidYMid meet">
<metadata>
Created by potrace 1.15, written by Peter Selinger 2001-2017
</metadata>
<g transform="translate(0.000000,1280.000000) scale(0.100000,-0.100000)"
fill="#000000" stroke="none">
<path d="M5051 12449 c-36 -4 -76 -13 -90 -18 -15 -6 -60 -17 -101 -25 -208
-42 -344 -123 -510 -308 -79 -86 -191 -224 -190 -233 0 -3 0 -6 -1 -7 0 -2 -2
-10 -4 -19 -1 -9 -25 -51 -51 -95 -46 -74 -69 -117 -174 -334 -38 -78 -128
-301 -185 -460 -30 -86 -60 -191 -74 -265 -37 -193 -52 -297 -52 -348 1 -80
-8 -93 -70 -101 -28 -4 -58 -11 -67 -15 -10 -5 -60 -29 -112 -54 -110 -53
-172 -103 -226 -184 -75 -114 -107 -231 -134 -498 -7 -60 -21 -150 -31 -200
-40 -182 -73 -397 -94 -618 l-7 -67 -196 100 c-281 143 -411 238 -633 461 -97
97 -191 198 -210 224 -41 58 -242 228 -335 286 -89 54 -112 73 -179 153 -31
36 -60 66 -65 66 -18 0 -50 -44 -56 -75 -8 -42 15 -93 64 -147 50 -54 62 -78
62 -120 0 -65 -39 -90 -185 -118 -33 -7 -67 -16 -75 -20 -8 -4 -62 -13 -120
-19 -141 -15 -301 -49 -340 -72 -26 -16 -31 -25 -28 -52 3 -31 4 -32 48 -30
270 11 380 12 380 3 0 -24 -42 -48 -111 -65 -109 -26 -339 -102 -375 -124 -35
-21 -45 -46 -33 -79 11 -29 37 -28 127 2 40 14 93 28 119 31 27 3 97 15 156
27 60 11 111 18 114 15 11 -12 -10 -26 -78 -52 -86 -33 -275 -137 -308 -170
-18 -18 -22 -29 -17 -49 4 -15 14 -30 22 -33 9 -3 59 15 112 41 53 25 102 46
108 46 6 0 52 14 102 30 108 35 130 38 83 9 -62 -38 -190 -139 -201 -159 -14
-27 -12 -56 4 -69 18 -15 35 -7 97 45 24 20 69 49 99 63 30 15 84 43 120 63
63 35 86 41 355 99 50 10 118 19 153 19 l63 0 62 -62 c34 -35 91 -86 127 -115
84 -67 281 -261 394 -386 70 -78 113 -114 214 -182 172 -114 498 -275 557
-275 43 0 89 35 143 108 65 88 165 268 200 359 15 40 30 73 33 73 3 0 9 -35
13 -79 3 -43 17 -111 31 -151 17 -51 25 -96 25 -144 0 -93 14 -184 50 -331 48
-199 60 -290 70 -530 6 -126 16 -320 22 -431 6 -111 8 -255 5 -320 -5 -102
-85 -651 -118 -813 -6 -29 -7 -57 -2 -62 4 -4 51 -16 103 -25 52 -8 96 -17 97
-18 1 -1 7 -85 13 -187 19 -331 48 -652 82 -888 20 -145 20 -167 2 -417 -7
-98 15 -201 72 -328 41 -93 68 -176 118 -363 45 -171 114 -353 238 -633 55
-124 125 -283 155 -355 l56 -130 -33 -140 c-59 -254 -110 -439 -135 -488 -14
-27 -25 -54 -25 -60 0 -6 -7 -19 -16 -29 -10 -10 -21 -41 -25 -68 -9 -58 -43
-106 -95 -133 -19 -9 -34 -21 -34 -26 0 -5 -11 -12 -24 -15 -14 -3 -45 -24
-70 -45 -30 -26 -59 -41 -88 -46 -60 -10 -91 -28 -148 -85 -32 -32 -50 -58
-50 -74 0 -44 -12 -86 -26 -86 -7 0 -21 -11 -31 -23 -10 -13 -35 -29 -55 -36
-20 -7 -38 -17 -40 -23 -3 -9 -31 -8 -105 1 -74 9 -112 9 -149 1 -27 -6 -61
-13 -76 -15 -14 -2 -38 -11 -53 -21 -30 -20 -73 -109 -82 -169 -5 -36 -2 -44
28 -73 46 -45 109 -80 265 -146 176 -75 239 -89 399 -88 117 0 150 4 335 46
236 52 281 60 484 81 91 9 159 21 172 30 17 11 26 34 39 92 9 43 23 103 32
134 10 36 14 82 11 127 l-4 71 171 41 c199 48 271 77 285 115 15 39 12 220 -5
298 -8 37 -32 109 -54 160 -46 108 -57 144 -66 214 -4 29 -13 57 -21 64 -8 6
-14 20 -14 30 0 10 -4 21 -10 24 -5 3 -10 15 -10 27 0 37 -31 86 -65 102 -58
28 -54 53 42 291 209 517 261 731 270 1120 5 202 -3 282 -49 480 -19 83 -23
128 -23 270 1 197 7 227 124 612 38 125 92 314 120 418 29 105 59 214 67 244
l15 54 140 -6 c178 -7 205 -3 253 37 l38 33 15 239 c17 276 11 624 -13 797
-46 328 -149 574 -381 910 l-74 107 34 0 c74 0 253 80 407 181 168 110 251
179 440 364 238 234 415 394 465 424 22 13 65 49 96 79 54 52 59 54 96 47 76
-12 298 -166 449 -309 78 -74 102 -104 139 -178 40 -77 48 -87 64 -78 38 20
40 56 6 128 -13 28 -20 52 -16 52 13 0 63 -59 112 -134 46 -68 58 -76 79 -51
25 30 6 95 -59 198 -58 94 -60 97 -30 80 17 -10 63 -53 102 -95 38 -43 76 -78
83 -78 17 0 34 32 34 62 0 49 -96 164 -278 332 -29 27 -51 51 -49 52 9 9 176
-91 213 -127 54 -53 78 -50 82 9 3 41 0 46 -65 114 -37 39 -103 95 -146 126
-43 30 -85 65 -93 77 -9 13 -47 46 -85 74 -88 65 -112 101 -104 160 6 50 23
74 66 91 57 24 80 118 38 156 -20 18 -22 18 -77 -12 -42 -23 -76 -33 -131 -38
-80 -8 -268 -62 -334 -97 -50 -26 -206 -151 -262 -209 -50 -52 -220 -201 -300
-262 -90 -68 -266 -182 -363 -235 -72 -39 -335 -163 -347 -163 -2 0 -3 109 -3
243 2 603 -2 839 -18 916 -42 203 -126 310 -330 422 -62 34 -71 43 -66 62 6
22 6 22 13 -3 12 -40 2 218 -11 297 -19 110 -8 170 40 222 57 62 96 136 114
214 19 80 61 167 81 167 9 0 12 6 9 15 -3 8 10 34 31 59 31 38 41 44 64 40 16
-4 31 0 38 8 6 7 37 76 67 152 70 173 80 234 73 471 -5 188 -10 213 -61 313
-26 52 -132 179 -146 175 -4 -1 -16 8 -26 20 -16 18 -16 20 -1 8 12 -10 17
-10 17 -2 0 7 6 9 13 6 6 -4 -10 14 -38 39 -27 26 -60 49 -72 52 -13 3 -21 9
-18 13 2 4 -15 18 -38 31 -23 13 -44 27 -47 31 -6 8 -120 60 -120 54 0 -3 -23
9 -52 26 -29 17 -62 32 -75 33 -13 2 -26 6 -30 9 -9 9 -182 7 -262 -4z m730
-266 c13 -16 12 -17 -3 -4 -17 13 -22 21 -14 21 2 0 10 -8 17 -17z m-1480
-161 c-5 -10 -28 -38 -51 -62 -40 -43 -39 -43 7 17 49 65 61 76 44 45z m-101
-126 c0 -2 -8 -10 -17 -17 -16 -13 -17 -12 -4 4 13 16 21 21 21 13z m1257
-1678 c0 -56 -3 -85 -8 -73 -5 13 -8 -11 -8 -62 -1 -46 -5 -83 -10 -83 -19 0
-20 17 -7 99 8 46 11 92 9 102 -5 16 14 109 22 109 1 0 2 -42 2 -92z m15 -197
c-5 -3 -12 -13 -15 -21 -7 -15 -2 50 11 150 7 53 7 52 10 -34 2 -49 -1 -92 -6
-95z m-863 -5693 c-2 -196 0 -209 33 -365 19 -89 31 -160 28 -158 -4 3 -25 40
-46 82 l-39 78 0 235 c0 209 8 330 21 330 2 0 3 -91 3 -202z"/>
<path d="M4123 11808 c-15 -20 -25 -38 -20 -38 3 0 12 11 21 25 17 26 16 35
-1 13z"/>
<path d="M4058 11708 c-40 -62 -142 -267 -136 -273 2 -3 28 46 58 108 29 61
65 130 80 152 35 53 42 65 37 65 -2 0 -20 -24 -39 -52z"/>
<path d="M3576 10470 c-22 -56 -19 -65 5 -11 11 24 18 46 15 48 -2 2 -11 -14
-20 -37z"/>
<path d="M3582 10355 c-17 -37 -14 -45 4 -12 9 16 14 31 11 33 -2 2 -9 -7 -15
-21z"/>
<path d="M3506 10265 c-9 -26 -7 -32 5 -12 6 10 9 21 6 23 -2 3 -7 -2 -11 -11z"/>
</g>
</svg>
