<?xml version="1.0" standalone="no"?>
<!DOCTYPE svg PUBLIC "-//W3C//DTD SVG 20010904//EN"
 "http://www.w3.org/TR/2001/REC-SVG-20010904/DTD/svg10.dtd">
<svg version="1.0" xmlns="http://www.w3.org/2000/svg"
 width="836.000000pt" height="1280.000000pt" viewBox="0 0 836.000000 1280.000000"
 preserveAspectRatio="xMidYMid meet">
<metadata>
Created by potrace 1.15, written by Peter Selinger 2001-2017
</metadata>
<g transform="translate(0.000000,1280.000000) scale(0.100000,-0.100000)"
fill="#FA8072" stroke="none">
<path d="M3995 12352 c-22 -10 -64 -21 -93 -25 -71 -8 -210 -57 -278 -98 -75
-46 -205 -167 -258 -243 -56 -78 -86 -138 -136 -273 -61 -163 -81 -245 -87
-374 -7 -141 4 -226 62 -459 74 -297 87 -401 82 -634 -2 -111 -10 -229 -16
-262 l-13 -61 -56 -6 c-282 -25 -475 -171 -563 -424 -11 -32 -36 -143 -55
-248 -19 -104 -46 -226 -59 -270 -39 -130 -83 -320 -108 -466 l-23 -136 -144
121 c-249 207 -395 369 -598 660 -53 77 -133 178 -177 224 -140 149 -326 253
-487 272 -46 6 -122 19 -170 30 -123 29 -196 30 -214 6 -44 -60 29 -128 153
-142 63 -7 131 -36 140 -59 18 -48 -52 -135 -109 -135 -18 0 -57 -6 -86 -14
l-52 -13 -58 36 c-32 20 -75 53 -95 74 -35 35 -49 41 -87 38 -8 0 -27 16 -41
37 -27 39 -47 52 -116 72 -33 10 -46 10 -57 1 -21 -18 33 -133 103 -219 31
-37 63 -78 71 -90 13 -19 156 -107 299 -183 65 -35 90 -36 256 -4 148 29 249
32 323 10 91 -27 111 -52 272 -335 42 -74 102 -180 134 -234 32 -55 82 -149
113 -210 31 -61 73 -136 93 -166 94 -138 276 -316 475 -465 114 -85 163 -110
200 -101 41 10 159 129 220 221 163 249 239 431 295 709 9 42 15 55 21 44 16
-28 29 -103 39 -213 16 -187 41 -357 63 -430 16 -54 20 -92 18 -165 -1 -56 6
-154 18 -240 27 -187 26 -259 -4 -419 -95 -507 -122 -704 -135 -1001 -11 -272
-26 -515 -44 -754 -9 -121 -9 -159 0 -163 6 -2 60 -5 118 -6 98 -2 107 -4 111
-22 2 -11 11 -67 20 -125 9 -58 50 -276 92 -485 89 -455 101 -556 85 -695 -15
-123 -24 -146 -107 -262 -75 -104 -169 -291 -209 -413 -64 -201 -67 -223 -77
-610 -4 -198 -14 -403 -22 -457 -11 -84 -17 -101 -45 -132 -24 -27 -32 -46
-32 -74 0 -21 -13 -69 -30 -107 -28 -68 -29 -75 -30 -230 0 -176 -8 -245 -45
-404 -68 -293 -78 -342 -85 -416 -5 -44 -13 -98 -19 -120 -6 -22 -11 -66 -11
-98 0 -71 29 -126 100 -190 80 -72 214 -98 302 -58 24 11 68 24 99 31 82 16
145 60 172 118 31 67 31 278 -1 402 -22 86 -31 245 -13 252 4 2 13 102 19 223
8 141 17 240 28 275 20 70 26 166 13 205 -9 25 -4 55 26 170 67 257 106 378
209 645 57 146 129 336 161 423 32 87 92 225 133 305 171 333 182 357 197 432
29 149 59 992 49 1383 -5 181 -4 247 5 247 6 0 14 0 19 0 4 0 7 -3 7 -7 0 -17
17 -33 34 -33 15 0 18 -27 29 -312 7 -172 19 -425 27 -563 8 -137 15 -341 15
-452 0 -149 5 -230 19 -315 10 -62 21 -132 25 -154 4 -27 -5 -100 -24 -209
-58 -319 -62 -382 -66 -890 -3 -537 -20 -842 -48 -857 -26 -14 -70 -90 -68
-116 1 -13 -5 -37 -14 -53 -10 -21 -17 -72 -20 -167 -4 -90 -14 -178 -31 -257
-28 -135 -26 -206 8 -261 11 -19 70 -77 131 -130 97 -85 114 -105 140 -163 34
-77 94 -143 159 -176 148 -76 397 -77 467 -2 59 64 83 161 63 258 -10 47 -31
79 -154 239 -114 149 -147 199 -166 254 -13 38 -39 91 -58 119 l-34 51 3 147
c2 82 7 151 11 155 12 12 8 48 -8 70 -13 19 -10 38 31 195 43 166 141 470 219
684 49 134 90 297 111 441 19 129 23 348 15 964 -5 380 -10 338 90 804 33 153
70 338 82 411 l21 132 93 -5 c76 -4 97 -2 111 11 9 9 38 25 65 36 26 11 50 27
53 35 6 15 4 28 -56 546 -66 564 -81 650 -170 975 -65 238 -90 308 -191 535
-99 225 -134 325 -149 427 -6 43 -18 116 -27 163 -15 78 -15 101 0 270 17 197
28 244 89 365 l35 69 13 -74 c26 -162 62 -329 90 -413 77 -230 291 -571 391
-622 41 -22 67 -19 144 18 167 80 327 195 479 345 102 101 145 155 243 307
106 165 372 546 434 621 58 71 103 102 195 135 51 19 89 23 284 28 l225 6 140
77 c187 102 197 108 215 143 8 17 30 56 48 89 35 62 64 151 66 201 2 45 -35
46 -79 2 -25 -25 -41 -34 -55 -30 -26 7 -86 -54 -95 -97 -7 -30 -29 -60 -45
-60 -4 0 -6 9 -3 20 9 32 -51 27 -83 -7 -21 -22 -32 -27 -68 -24 -24 1 -62 -3
-85 -9 -25 -6 -48 -7 -57 -2 -12 7 1 14 53 30 37 11 79 23 93 26 38 8 110 73
110 99 0 30 -11 44 -43 56 -30 12 -111 0 -150 -21 -13 -7 -90 -15 -182 -19
-177 -8 -241 -23 -351 -85 -94 -52 -261 -211 -417 -399 -237 -286 -383 -419
-658 -606 -64 -44 -122 -86 -129 -94 -7 -8 -16 -15 -20 -15 -4 0 -15 44 -25
98 -26 147 -80 379 -121 515 -19 67 -49 198 -65 290 -48 281 -99 399 -228 528
-85 85 -188 143 -316 176 -62 16 -77 25 -137 83 l-68 65 0 76 c0 42 8 143 17
225 26 224 22 853 -7 994 -55 272 -126 450 -253 642 -129 194 -239 306 -384
388 -93 53 -180 64 -248 32z m376 -129 c13 -16 12 -17 -3 -4 -10 7 -18 15 -18
17 0 8 8 3 21 -13z m-1024 -2040 c-3 -10 -5 -4 -5 12 0 17 2 24 5 18 2 -7 2
-21 0 -30z m1420 -205 c-2 -13 -4 -3 -4 22 0 25 2 35 4 23 2 -13 2 -33 0 -45z
m138 -58 c4 -6 9 -8 13 -6 4 2 21 -7 37 -21 29 -24 29 -25 5 -19 -14 3 -31 6
-37 6 -7 0 -13 5 -13 11 0 7 -8 18 -17 25 -10 7 -13 14 -6 14 6 0 15 -5 18
-10z m-160 -8841 c9 -17 15 -33 13 -35 -3 -2 -12 12 -21 31 -21 43 -13 47 8 4z"/>
</g>
</svg>
