<?xml version="1.0" encoding="utf-8"?>
<!-- Svg Vector Icons : http://www.onlinewebfonts.com/icon -->
<!DOCTYPE svg PUBLIC "-//W3C//DTD SVG 1.1//EN" "http://www.w3.org/Graphics/SVG/1.1/DTD/svg11.dtd">
<svg version="1.1" xmlns="http://www.w3.org/2000/svg" xmlns:xlink="http://www.w3.org/1999/xlink" x="0px" y="0px" viewBox="0 0 1000 1000" enable-background="new 0 0 1000 1000" xml:space="preserve">
<metadata> Svg Vector Icons : http://www.onlinewebfonts.com/icon </metadata>
<g><g transform="translate(0.000000,511.000000) scale(0.100000,-0.100000)" fill="#FA8072" stroke="none"><path d="M7670.4,4686.2c-520.8-388.2-661.3-501.3-922.7-745.1C5277,2567.8,4063.7,162.7,3868.6-1766.5c-35.1-345.2-17.5-842.7,39-1016.3c113.1-357,351.1-651.5,632-782.2c452.6-208.7,1049.4-70.2,1336.2,308.2c214.6,284.8,267.2,608.6,165.8,1039.7c-27.3,119-70.2,333.5-95.6,477.9c-249.7,1420,29.3,3039.1,797.8,4632.7C7054,3535.3,7292,3915.7,7791.4,4573.1c181.4,239.9,327.7,436.9,323.8,436.9C8111.3,5010,7910.4,4863.7,7670.4,4686.2z"/><path d="M2376.4-2414.1C1929.7-2459,925.1-2626.7,892-2661.8c-11.7-11.7,107.3-542.3,126.8-561.8c5.9-7.8,113.1,7.8,236,31.2c481.8,97.5,1351.8,214.6,1484.4,200.9c58.5-5.8,62.4-11.7,107.3-185.3c105.3-405.7,292.6-739.3,573.5-1022.1c282.8-284.8,589.1-452.5,998.7-550.1c156.1-35.1,238-41,581.3-41c343.3,0,425.2,5.9,581.3,41c413.6,97.5,715.9,265.3,1008.5,561.8c314.1,316,444.7,571.5,606.6,1176.2c9.8,33.2,97.5,29.3,491.6-15.6c351.1-39,805.6-111.2,1106-175.6c97.5-19.5,181.4-29.3,187.2-23.4c19.5,21.5,138.5,552,126.8,563.7c-17.5,17.6-518.9,113.1-889.5,169.7c-474,72.2-883.6,109.2-1230.8,109.2h-306.3l-11.7-52.7c-5.8-31.2-15.6-111.2-21.5-181.4c-70.2-696.4-380.4-1203.5-877.8-1435.7c-450.6-208.7-1090.4-208.7-1541,0c-497.4,232.1-807.6,739.3-877.8,1435.7c-5.8,70.2-15.6,150.2-21.5,181.4l-11.7,52.7l-343.3-2C2786-2386.8,2516.9-2398.5,2376.4-2414.1z"/></g></g>
</svg>