<?xml version="1.0" standalone="no"?>
<!DOCTYPE svg PUBLIC "-//W3C//DTD SVG 20010904//EN"
 "http://www.w3.org/TR/2001/REC-SVG-20010904/DTD/svg10.dtd">
<svg version="1.0" xmlns="http://www.w3.org/2000/svg"
 width="886.000000pt" height="1280.000000pt" viewBox="0 0 886.000000 1280.000000"
 preserveAspectRatio="xMidYMid meet">
<metadata>
Created by potrace 1.15, written by Peter Selinger 2001-2017
</metadata>
<g transform="translate(0.000000,1280.000000) scale(0.100000,-0.100000)"
fill="#900C3F" stroke="none">
<path d="M5071 12764 c-22 -19 -49 -54 -60 -78 -22 -45 -28 -130 -10 -141 16
-11 20 -1 24 60 4 67 46 145 86 159 60 21 100 -16 119 -107 l8 -42 1 43 c1 50
-18 92 -55 121 -38 30 -68 26 -113 -15z"/>
<path d="M2977 12780 c-27 -5 -63 -20 -82 -34 -66 -50 -140 -159 -133 -194 3
-10 18 11 41 55 40 78 61 97 157 138 63 27 95 46 75 44 -6 -1 -32 -5 -58 -9z"/>
<path d="M3192 12720 c92 -60 148 -122 190 -210 17 -36 37 -73 45 -82 9 -10
18 -55 24 -120 13 -161 49 -459 59 -498 10 -38 128 -160 155 -160 20 0 19 3
-10 46 -33 49 -58 133 -101 338 -40 196 -53 246 -66 246 -5 0 -7 13 -3 28 21
96 -170 387 -290 443 -78 36 -80 19 -3 -31z"/>
<path d="M5030 12435 c0 -14 -8 -29 -20 -35 -45 -24 -14 -69 77 -115 53 -26
96 -34 123 -22 15 7 20 -15 24 -118 1 -37 -1 -40 -26 -40 -42 -1 -44 -11 -11
-58 16 -23 33 -47 36 -53 4 -7 -9 -31 -28 -55 -19 -24 -49 -79 -66 -121 -40
-99 -53 -111 -72 -65 -15 36 -94 103 -132 113 -28 7 -113 -26 -159 -61 -19
-15 -45 -43 -57 -62 -20 -32 -23 -34 -33 -17 -6 11 -11 70 -11 131 0 62 -1
113 -3 113 -2 0 -14 -24 -27 -54 -33 -74 -41 -122 -24 -143 26 -31 10 -383
-18 -383 -3 0 -21 14 -40 30 -36 32 -80 40 -89 16 -3 -8 13 -46 35 -83 65
-110 53 -150 -42 -140 -83 8 -125 33 -138 81 -6 23 -18 61 -26 86 -9 25 -16
61 -17 81 0 24 -4 35 -12 32 -6 -2 -40 8 -75 22 -78 33 -186 43 -244 23 -51
-18 -72 -58 -90 -172 -15 -94 -28 -126 -50 -126 -19 0 -19 -19 0 -40 14 -15
12 -23 -15 -76 -40 -75 -95 -142 -123 -149 -18 -5 -69 -11 -109 -14 -14 -1 -8
-28 12 -54 11 -14 34 -29 51 -32 19 -4 33 -15 37 -27 2 -11 10 -17 18 -14 17
7 42 -18 50 -50 8 -32 -4 -44 -20 -21 -44 59 -32 -30 15 -121 31 -60 40 -86
35 -106 -9 -36 -22 -33 -72 18 -24 24 -44 42 -44 41 0 -2 13 -32 30 -67 16
-34 30 -70 30 -79 0 -9 36 -67 81 -130 76 -108 80 -116 74 -155 -5 -37 -2 -45
47 -110 108 -143 196 -299 185 -328 -7 -18 -79 -56 -106 -56 -46 0 -116 162
-131 302 -6 58 -15 97 -25 108 -28 31 -116 64 -175 64 -68 1 -113 -20 -186
-87 -30 -27 -57 -47 -61 -44 -3 4 2 25 11 48 9 23 15 44 12 46 -9 9 -64 -27
-98 -65 -44 -48 -58 -90 -57 -162 1 -30 -2 -67 -6 -82 -8 -29 -6 -31 48 -43
31 -6 303 -265 336 -319 45 -73 35 -142 -37 -256 -39 -60 -60 -123 -54 -158 2
-12 29 -50 59 -83 l56 -60 -23 -16 c-69 -49 -221 -177 -262 -221 -65 -70 -62
-112 9 -112 24 0 69 24 182 101 163 109 213 129 224 88 4 -13 7 -75 7 -136 l0
-113 -62 -1 -63 -1 44 -11 c34 -8 59 -26 111 -78 85 -85 126 -99 284 -99 61 0
121 -3 133 -6 25 -7 37 -49 49 -172 l7 -72 -66 -30 c-151 -68 -443 -140 -571
-140 -81 0 -99 -10 -65 -34 18 -12 20 -18 10 -30 -7 -9 -29 -18 -48 -22 -49
-9 -41 -38 12 -42 26 -2 48 -11 62 -27 19 -20 29 -22 64 -18 38 5 45 3 64 -21
20 -25 25 -27 45 -16 18 10 30 9 62 -6 l40 -18 18 24 19 25 31 -24 32 -23 -7
22 c-6 19 -3 21 22 20 45 -3 50 -1 56 20 6 25 45 27 89 4 l31 -16 -6 31 c-6
28 -3 34 27 52 23 13 36 30 40 50 3 17 26 64 51 103 25 40 45 78 45 84 0 12
16 18 75 28 60 10 140 56 234 134 114 94 148 93 134 -5 -7 -54 9 -60 50 -17
44 46 58 95 72 266 11 134 19 176 45 251 40 113 49 194 26 230 -9 14 -47 45
-84 69 -73 47 -108 81 -141 136 -45 75 -17 97 64 51 64 -37 69 -37 102 -11 22
17 28 18 52 6 14 -8 45 -37 69 -64 26 -31 63 -61 98 -78 59 -29 86 -28 171 7
30 12 35 11 90 -25 200 -129 325 -147 542 -80 46 14 93 23 105 20 11 -3 68
-39 126 -80 131 -93 181 -119 245 -124 59 -5 138 24 176 64 30 32 19 39 -74
49 -153 15 -276 93 -402 256 -101 131 -106 132 -220 55 -109 -72 -146 -86
-225 -87 -52 -1 -87 7 -175 39 -144 52 -189 66 -315 97 -137 33 -150 47 -71
74 70 23 176 14 288 -25 103 -36 156 -42 97 -11 -41 21 -120 109 -128 143 -10
37 4 46 75 55 119 14 117 53 -11 184 -108 111 -130 149 -130 230 0 55 12 97
24 85 2 -3 18 -50 36 -105 56 -178 62 -185 143 -185 l49 0 -8 33 c-3 17 -22
86 -40 151 -21 74 -30 124 -25 129 18 18 62 -4 121 -58 39 -36 71 -56 95 -61
23 -4 58 -26 99 -63 35 -31 90 -76 122 -101 47 -37 60 -54 74 -95 21 -66 47
-108 144 -230 114 -143 175 -205 222 -226 50 -23 184 -37 184 -20 0 6 -10 11
-22 11 -55 0 -156 94 -242 225 -30 44 -88 149 -131 233 -95 187 -122 215 -257
262 -51 17 -136 54 -188 82 -52 27 -126 62 -165 76 l-70 27 -36 72 c-92 185
-108 413 -57 808 26 203 26 337 0 430 -18 64 -20 68 -26 40 -17 -73 -43 -123
-85 -168 -44 -47 -45 -50 -43 -108 l3 -59 -66 0 c-65 0 -67 -1 -117 -47 -167
-157 -211 -310 -169 -582 26 -168 26 -224 0 -403 -33 -225 -22 -282 72 -386
27 -30 49 -60 49 -68 0 -21 -47 -17 -130 11 -103 35 -135 31 -111 -14 16 -29
61 -40 255 -62 247 -28 288 -53 158 -95 -49 -16 -89 -19 -297 -19 -239 0 -240
0 -296 26 -57 27 -100 73 -158 172 l-23 37 84 0 c155 0 230 39 269 138 19 49
23 82 27 236 5 193 -6 292 -41 386 -11 30 -67 124 -125 209 -179 264 -212 365
-149 460 15 23 35 45 44 48 21 8 43 -23 43 -62 0 -41 31 -130 71 -206 34 -63
103 -148 113 -139 3 3 -1 30 -9 60 -13 48 -54 309 -68 439 -5 42 -5 43 21 37
15 -3 48 -9 74 -12 l47 -7 5 34 c3 19 7 69 10 111 10 177 110 273 229 223 53
-22 64 -19 70 20 3 19 22 59 42 89 59 89 124 117 210 91 28 -8 53 -15 58 -15
4 0 7 27 7 60 0 33 4 60 10 60 6 0 10 6 10 14 0 26 49 74 95 93 25 10 45 20
45 23 0 9 -128 60 -149 60 -27 0 -51 -26 -51 -56 0 -30 -2 -30 -50 2 -30 20
-47 25 -70 21 -54 -11 -39 11 68 101 56 47 74 87 61 136 -17 60 -29 52 -29
-17 0 -53 -3 -67 -15 -67 -15 0 -32 46 -21 57 11 11 -16 33 -41 33 -32 0 -72
22 -107 59 -17 17 -35 31 -41 31 -6 0 -37 27 -70 60 -33 33 -63 60 -67 60 -4
0 -8 -11 -8 -25z m269 -1651 c1 -88 -21 -242 -39 -274 -17 -30 -25 23 -25 160
0 98 5 155 19 210 10 41 21 80 25 85 9 15 19 -77 20 -181z m-64 -324 c3 -5 10
-58 15 -118 7 -89 16 -128 50 -217 44 -118 48 -152 15 -147 -52 10 -141 111
-170 193 -19 52 -19 159 -2 202 15 36 64 97 77 97 5 0 12 -4 15 -10z"/>
<path d="M4840 12358 c-87 -43 -177 -135 -223 -228 -21 -40 -37 -84 -37 -99 0
-36 14 -13 41 69 12 36 29 73 38 84 25 29 126 95 197 128 53 25 64 34 64 54 0
31 -4 30 -80 -8z"/>
<path d="M2770 12333 c0 -19 11 -43 21 -43 13 0 11 14 -6 36 -8 10 -15 14 -15
7z"/>
<path d="M6222 12247 c-54 -57 -57 -197 -5 -197 9 0 13 19 13 69 0 38 7 87 15
110 16 46 9 52 -23 18z"/>
<path d="M2860 12221 c0 -11 25 -21 51 -21 23 0 25 15 3 24 -23 9 -54 7 -54
-3z"/>
<path d="M2957 12214 c-9 -9 2 -24 17 -24 7 0 21 7 32 15 18 14 17 14 -12 15
-17 0 -34 -3 -37 -6z"/>
<path d="M5984 12195 c-4 -8 -2 -41 2 -73 l9 -57 42 -3 c34 -2 44 1 53 17 16
30 2 67 -36 101 -38 33 -62 38 -70 15z"/>
<path d="M4350 12186 c0 -19 27 -39 40 -31 8 5 6 13 -6 26 -20 22 -34 25 -34
5z"/>
<path d="M6432 12165 c-7 -14 -12 -29 -12 -33 1 -10 40 38 40 49 0 18 -17 8
-28 -16z"/>
<path d="M3288 12113 c12 -2 30 -2 40 0 9 3 -1 5 -23 4 -22 0 -30 -2 -17 -4z"/>
<path d="M4087 12099 c-40 -30 -83 -97 -105 -165 -12 -37 -25 -58 -33 -57 -8
1 -35 7 -60 13 -25 6 -77 10 -115 8 l-69 -3 60 -30 c51 -25 72 -29 140 -30
l80 0 6 48 c13 84 68 172 139 219 23 15 23 17 5 17 -11 0 -32 -9 -48 -20z"/>
<path d="M4278 12084 c49 -42 82 -99 82 -144 0 -18 4 -29 10 -25 14 9 12 60
-4 98 -15 37 -91 107 -115 107 -10 0 1 -15 27 -36z"/>
<path d="M3171 12065 c-38 -44 -87 -140 -100 -194 -14 -63 3 -48 29 26 13 36
45 95 72 130 26 35 48 66 48 69 0 13 -22 0 -49 -31z"/>
<path d="M4390 12077 c0 -29 18 -47 46 -47 43 0 41 39 -2 59 -36 16 -44 14
-44 -12z"/>
<path d="M4813 12035 c-38 -16 -53 -41 -55 -95 -2 -54 10 -64 69 -61 32 2 86
50 80 73 -4 14 1 18 22 18 46 0 92 20 89 39 -7 36 -142 54 -205 26z"/>
<path d="M4495 11953 c-27 -19 -51 -38 -53 -43 -4 -10 69 -61 78 -55 8 5 34
125 28 130 -2 1 -25 -13 -53 -32z"/>
<path d="M5060 11964 c6 -14 10 -36 10 -50 0 -13 5 -24 10 -24 13 0 13 56 0
81 -16 29 -31 24 -20 -7z"/>
<path d="M6209 11968 c-18 -34 -4 -117 30 -184 36 -68 52 -154 30 -154 -19 0
-42 40 -70 120 -12 36 -37 87 -56 115 -18 27 -33 55 -33 61 0 14 -23 24 -57
24 -25 0 -25 -1 -9 -19 22 -25 16 -36 -37 -63 -23 -11 -57 -37 -76 -57 l-34
-36 6 39 c4 25 2 45 -6 54 -7 8 -17 33 -23 56 l-11 41 -32 -65 c-19 -35 -44
-81 -57 -102 -30 -47 -30 -71 2 -183 28 -103 32 -181 10 -242 -8 -24 -12 -43
-9 -43 3 0 46 30 96 66 115 84 119 86 106 39 -6 -20 -8 -39 -5 -42 2 -3 34 10
71 28 79 39 103 33 136 -33 12 -24 28 -51 36 -60 14 -16 18 -16 45 -2 16 9 32
14 34 12 2 -2 -4 -31 -12 -63 -20 -77 -15 -166 13 -203 30 -41 82 -72 119 -72
52 0 95 45 148 157 67 140 72 148 100 151 14 2 31 12 36 23 15 27 84 25 176
-6 78 -26 105 -40 166 -88 71 -56 95 -14 38 68 -17 24 -30 47 -30 52 0 4 19 7
43 5 30 -3 47 1 56 12 20 24 3 39 -38 32 -98 -16 -131 -15 -231 6 -87 19 -105
26 -108 43 -4 21 -30 55 -42 55 -4 0 -11 -15 -14 -33 -7 -39 -53 -114 -75
-122 -19 -8 -31 12 -31 55 -1 89 -86 185 -190 214 -71 20 -77 29 -110 166 -25
104 -63 200 -79 200 -6 0 -16 -10 -22 -22z"/>
<path d="M4168 11929 c-27 -15 -21 -31 10 -27 15 2 27 9 27 17 0 19 -16 23
-37 10z"/>
<path d="M4147 11816 c-3 -8 3 -26 14 -40 29 -37 3 -34 -41 4 -19 16 -40 29
-46 30 -30 1 -124 -135 -124 -180 0 -21 6 -23 53 -20 16 1 37 -6 48 -16 18
-16 19 -16 19 13 0 41 26 62 96 74 143 26 150 36 81 104 -46 46 -89 59 -100
31z"/>
<path d="M4430 11751 c0 -14 -10 -25 -27 -33 -37 -15 -7 -23 30 -9 30 12 35
32 12 51 -13 10 -15 9 -15 -9z"/>
<path d="M7091 11693 c-12 -14 -19 -28 -16 -31 8 -8 55 28 55 43 0 23 -16 18
-39 -12z"/>
<path d="M7194 11688 c47 -42 57 -79 39 -143 -28 -100 -28 -102 -9 -86 62 51
61 172 -2 244 -8 9 -26 17 -40 17 -25 0 -24 -1 12 -32z"/>
<path d="M3095 11673 c35 -84 106 -167 180 -212 50 -30 61 -33 107 -28 53 7
96 35 84 56 -13 20 -46 12 -56 -14 -12 -32 -37 -32 -99 -1 -69 36 -154 117
-187 181 -33 62 -52 74 -29 18z"/>
<path d="M5305 11666 c-60 -26 -140 -134 -352 -476 -59 -96 -109 -178 -111
-182 -2 -5 11 -8 30 -8 94 0 298 186 348 318 16 43 22 47 65 58 26 7 59 24 74
37 102 96 171 -9 171 -260 0 -59 4 -103 8 -97 22 24 119 309 131 381 18 115
-13 203 -72 203 -17 0 -70 9 -117 20 -100 23 -134 24 -175 6z"/>
<path d="M2788 11593 c-22 -25 -51 -84 -44 -90 5 -6 66 85 66 99 0 12 -5 10
-22 -9z"/>
<path d="M3698 11556 c-2 -23 -13 -37 -45 -59 -76 -50 -45 -71 56 -39 81 26
81 26 81 6 0 -9 9 -27 20 -41 l20 -26 0 40 c0 24 6 46 15 53 25 21 18 49 -12
55 -16 4 -51 14 -80 24 l-52 18 -3 -31z"/>
<path d="M2707 11433 c-13 -21 -27 -49 -32 -63 -16 -55 -120 -131 -198 -145
-30 -6 -35 -10 -26 -21 6 -8 29 -19 50 -26 84 -25 163 50 214 206 14 43 24 80
21 83 -2 3 -15 -12 -29 -34z"/>
<path d="M3100 11442 c0 -11 80 -46 87 -38 6 6 -35 32 -64 41 -13 3 -23 2 -23
-3z"/>
<path d="M3458 11378 c-38 -41 -57 -82 -44 -95 4 -4 28 1 54 10 62 23 66 22
106 -14 20 -17 40 -28 46 -24 20 12 9 44 -35 104 -55 74 -73 77 -127 19z"/>
<path d="M3229 11383 c15 -29 87 -103 99 -103 19 0 14 55 -5 72 -15 14 -87 48
-100 48 -2 0 1 -8 6 -17z"/>
<path d="M3505 11240 c-4 -6 6 -10 22 -10 22 0 25 2 13 10 -19 12 -27 12 -35
0z"/>
<path d="M2699 11188 c-5 -50 34 -124 85 -163 60 -46 62 -27 6 53 -21 32 -44
72 -51 90 -11 31 -38 45 -40 20z"/>
<path d="M3582 11143 l-23 -16 22 -23 c31 -33 39 -30 39 16 0 44 -4 47 -38 23z"/>
<path d="M5712 11117 c-106 -56 -181 -172 -220 -337 -11 -47 -30 -159 -42
-249 l-21 -164 48 -49 c26 -27 73 -61 103 -76 48 -24 68 -27 162 -29 104 -1
109 -2 165 -37 59 -36 146 -60 189 -51 13 3 35 7 49 10 13 3 51 29 84 58 32
29 85 67 117 84 l58 31 -46 7 c-55 8 -86 3 -201 -36 -48 -16 -91 -27 -96 -25
-5 3 -11 19 -14 36 -8 39 -32 39 -152 3 -70 -21 -111 -27 -185 -28 -85 0 -100
3 -140 26 -25 15 -53 36 -64 48 -18 20 -18 21 7 50 26 32 40 68 77 211 53 199
163 360 248 360 34 0 72 -39 78 -81 7 -44 13 -47 39 -19 23 25 31 107 16 153
-37 110 -157 158 -259 104z"/>
<path d="M7146 11121 c-9 -14 4 -252 15 -271 5 -9 8 42 9 120 0 128 -8 177
-24 151z"/>
<path d="M6680 11060 c-8 -5 -11 -12 -8 -15 9 -9 66 4 73 16 8 12 -46 11 -65
-1z"/>
<path d="M3208 10992 c-14 -17 -50 -75 -79 -128 -59 -106 -83 -128 -149 -139
-65 -11 -72 -19 -20 -25 57 -6 62 -27 26 -105 -14 -30 -23 -55 -20 -55 13 0
104 140 150 232 30 59 62 112 73 117 22 12 55 90 49 117 -2 15 -7 13 -30 -14z"/>
<path d="M6896 11004 c-3 -9 -6 -35 -6 -59 0 -86 -19 -95 -83 -40 -57 49 -129
68 -232 63 -66 -3 -91 -10 -127 -31 -63 -37 -123 -108 -149 -176 -23 -62 -29
-177 -10 -223 10 -26 14 -28 73 -28 74 0 134 -15 141 -35 8 -20 -4 -55 -58
-175 -52 -115 -65 -171 -45 -195 30 -36 205 -8 321 50 69 36 145 100 173 147
31 54 56 155 56 231 0 32 -10 101 -22 153 l-22 95 31 27 c35 30 58 91 49 127
-8 30 -54 85 -71 85 -7 0 -16 -7 -19 -16z"/>
<path d="M1931 10962 c-17 -26 -37 -67 -46 -91 -17 -49 -20 -121 -5 -121 14 0
25 32 39 114 7 38 21 86 32 107 27 53 17 49 -20 -9z"/>
<path d="M2152 10915 c-55 -58 -61 -78 -24 -83 17 -3 27 10 56 67 20 39 32 71
29 71 -4 0 -31 -25 -61 -55z"/>
<path d="M2405 10858 c9 -71 15 -89 26 -83 14 9 11 61 -5 100 -21 50 -29 43
-21 -17z"/>
<path d="M5782 10888 c-7 -7 -12 -26 -12 -43 0 -36 15 -55 46 -55 24 0 34 17
34 59 0 30 -16 51 -40 51 -9 0 -21 -5 -28 -12z"/>
<path d="M2634 10798 c4 -13 9 -57 12 -98 7 -103 13 -140 24 -140 5 0 10 15
12 33 3 30 5 28 43 -46 22 -43 41 -73 43 -68 2 6 -15 58 -37 115 -23 58 -41
117 -41 133 0 15 -9 43 -20 61 -23 37 -46 44 -36 10z"/>
<path d="M2058 10788 c-20 -17 -30 -58 -14 -58 16 0 56 42 56 58 0 16 -22 15
-42 0z"/>
<path d="M6072 10774 c-28 -19 -28 -53 -1 -88 37 -47 79 -28 79 35 0 28 -6 42
-22 53 -12 9 -25 16 -28 16 -3 0 -16 -7 -28 -16z"/>
<path d="M3430 10773 c1 -14 27 -43 39 -43 16 0 13 15 -7 33 -20 18 -32 22
-32 10z"/>
<path d="M3240 10739 c0 -21 7 -42 15 -49 13 -10 15 -9 15 11 -1 13 -7 35 -15
49 l-14 25 -1 -36z"/>
<path d="M5694 10712 c-15 -10 -34 -47 -34 -66 0 -24 46 -20 64 6 22 31 21 68
-1 68 -10 0 -23 -4 -29 -8z"/>
<path d="M5797 10714 c-26 -26 9 -70 49 -60 20 5 25 12 22 34 -2 22 -9 28 -33
30 -17 2 -34 0 -38 -4z"/>
<path d="M1912 10698 c-17 -17 -15 -84 3 -112 9 -13 14 -29 13 -36 -4 -17 26
-34 46 -27 32 13 11 155 -27 179 -16 10 -21 10 -35 -4z"/>
<path d="M3196 10661 c-9 -14 13 -140 31 -173 14 -29 29 -39 19 -13 -3 8 -1
15 3 15 14 0 22 -29 15 -54 -7 -29 36 -66 77 -66 40 0 79 20 79 41 0 24 -88
99 -116 99 -37 0 -29 27 16 55 59 37 50 65 -20 65 -16 0 -44 9 -64 20 -21 13
-37 17 -40 11z m69 -61 c7 -22 0 -40 -16 -40 -11 0 -29 41 -22 53 8 14 32 7
38 -13z"/>
<path d="M5872 10624 c-27 -31 -45 -44 -48 -36 -16 37 -66 -13 -120 -119 -54
-109 -63 -103 142 -95 173 7 221 15 236 39 13 21 9 46 -12 67 -13 13 -20 33
-20 60 0 30 -4 40 -16 40 -9 0 -21 14 -27 30 -6 17 -14 30 -17 30 -4 0 -19
-14 -36 -31 l-29 -31 -5 47 -5 47 -43 -48z"/>
<path d="M8056 10651 c-10 -11 -15 -25 -11 -30 22 -36 -32 -71 -108 -71 -71 0
-27 -17 75 -29 99 -11 163 -13 140 -4 -9 4 -11 20 -6 63 6 52 4 59 -17 74 -31
21 -52 20 -73 -3z"/>
<path d="M6156 10634 c-18 -18 -21 -56 -6 -85 12 -21 50 -25 68 -7 18 18 14
73 -6 91 -23 21 -36 21 -56 1z"/>
<path d="M1565 10596 c-23 -34 -16 -61 15 -61 22 0 25 4 25 39 0 47 -18 57
-40 22z"/>
<path d="M3504 10575 c-21 -21 -25 -33 -22 -73 l3 -47 48 2 c68 4 87 16 87 59
0 40 -36 84 -70 84 -11 0 -32 -11 -46 -25z"/>
<path d="M3112 10577 c-7 -8 -18 -30 -27 -50 -19 -47 -2 -51 38 -9 30 32 33
44 13 61 -10 8 -16 8 -24 -2z"/>
<path d="M8344 10511 c-30 -46 -49 -50 -108 -26 -51 22 -44 6 16 -35 98 -67
161 -168 204 -327 14 -54 28 -101 31 -105 12 -21 23 -3 24 40 1 77 8 86 65 83
32 -1 56 3 69 13 19 15 19 15 -8 16 -20 0 -43 16 -85 59 -95 96 -130 155 -145
241 -6 40 -17 75 -24 77 -6 3 -24 -14 -39 -36z"/>
<path d="M7066 10416 c-50 -103 -67 -129 -134 -195 -92 -91 -184 -142 -357
-196 -64 -20 -125 -45 -136 -56 -24 -24 -26 -99 -3 -165 19 -56 12 -64 -50
-57 l-41 4 25 -21 c13 -12 77 -53 142 -92 65 -39 118 -73 118 -75 0 -15 -127
-134 -188 -175 -40 -27 -76 -56 -79 -65 -13 -34 57 -43 141 -18 27 8 51 13 53
11 3 -2 -3 -18 -11 -35 -25 -48 -19 -67 39 -131 69 -75 73 -106 19 -156 -36
-32 -36 -33 -13 -38 13 -3 72 -7 131 -9 121 -4 134 -11 170 -81 25 -50 21
-121 -12 -190 -58 -121 -232 -155 -495 -96 -49 11 -120 23 -157 27 -61 5 -75
2 -156 -30 -112 -45 -209 -68 -289 -69 -63 0 -69 2 -180 68 -31 18 -31 18 -97
-9 -37 -15 -73 -27 -81 -27 -8 0 -54 37 -103 83 -112 104 -174 137 -200 105
-13 -18 -110 -335 -133 -438 -11 -52 -19 -124 -19 -185 0 -118 11 -147 93
-257 84 -112 89 -127 98 -267 8 -146 16 -161 74 -140 35 13 37 12 55 -11 11
-14 22 -36 25 -50 13 -51 73 -167 105 -203 37 -43 118 -102 127 -93 3 3 -15
24 -41 47 -135 119 -229 338 -165 383 36 24 70 -2 125 -94 64 -108 117 -140
177 -109 12 7 42 31 67 54 25 22 73 56 108 75 59 31 122 88 122 110 0 19 -15
10 -35 -20 -22 -33 -47 -53 -82 -64 -59 -19 5 75 72 105 24 11 64 19 98 19 53
0 62 -3 88 -31 26 -28 29 -29 29 -11 0 37 29 55 81 50 43 -5 51 -2 74 24 32
36 45 29 45 -27 0 -145 -140 -545 -241 -692 -19 -26 -42 -64 -53 -83 -26 -50
-160 -254 -217 -331 -81 -110 -261 -476 -320 -651 -11 -34 -27 -73 -34 -88
-15 -29 -155 -203 -312 -390 l-108 -128 -170 -97 c-687 -395 -891 -494 -1058
-511 -74 -7 -107 -29 -63 -40 51 -12 221 18 375 66 110 35 142 37 166 10 10
-11 25 -20 33 -20 11 0 9 8 -8 37 -19 33 -20 37 -5 45 10 6 14 16 9 30 -5 18
-3 20 20 14 18 -4 26 -2 26 7 0 14 14 22 94 56 72 31 217 116 286 167 44 34
65 44 81 39 18 -6 20 -4 14 14 -5 16 -2 21 13 21 46 0 27 -58 -67 -205 -80
-124 -152 -276 -160 -336 -6 -52 -6 -52 -20 -26 -18 34 -31 35 -31 2 0 -43
-79 -336 -117 -430 -66 -169 -122 -245 -180 -245 -26 0 -33 -4 -33 -20 0 -10
-10 -28 -22 -40 -19 -18 -20 -20 -4 -20 14 0 17 -6 13 -26 -4 -24 -3 -24 11
-10 9 8 21 30 26 48 13 38 46 58 98 58 40 0 41 -2 53 -78 4 -24 9 -42 11 -39
2 2 20 104 39 228 48 300 70 384 114 428 24 24 48 78 62 141 31 140 272 536
417 686 31 33 85 76 120 97 83 49 140 97 214 182 l61 70 -6 -65 c-8 -94 -42
-177 -145 -363 -155 -276 -201 -388 -242 -582 -93 -437 -76 -789 51 -1105 45
-113 53 -146 74 -310 45 -354 110 -560 240 -760 50 -77 279 -316 325 -339 14
-7 -35 47 -108 121 l-134 135 62 6 c75 6 152 42 218 102 55 50 112 148 112
193 0 100 -98 182 -165 138 -32 -21 -51 -85 -39 -134 12 -47 30 -39 26 11 -9
100 74 147 115 66 16 -30 17 -111 2 -163 -34 -123 -242 -226 -337 -167 -81 52
-210 336 -256 566 -15 75 -48 346 -43 351 1 1 38 -29 82 -67 151 -131 179
-142 69 -28 -56 58 -109 120 -119 139 -13 24 -19 70 -24 169 l-6 136 -13 -80
c-14 -90 -25 -108 -47 -79 -21 27 -70 183 -92 289 -25 126 -25 448 1 590 36
201 100 409 180 590 34 76 199 375 207 375 10 0 39 -113 39 -151 0 -20 -18
-96 -41 -170 -60 -199 -96 -356 -119 -524 -46 -334 -75 -573 -69 -569 3 2 9
18 13 36 26 128 24 130 76 -72 76 -294 198 -599 262 -656 25 -23 26 -26 -44
113 -132 258 -225 651 -203 863 11 112 136 457 233 645 38 74 39 59 7 -111
-25 -137 -42 -293 -31 -283 4 3 13 47 21 98 16 98 71 281 84 281 5 0 11 22 13
49 5 55 43 141 63 141 7 0 18 -7 25 -15 14 -16 40 -20 40 -6 0 5 -7 12 -15 15
-12 4 -15 15 -10 43 6 36 5 37 -10 18 -14 -17 -17 -18 -25 -5 -5 8 -10 21 -10
28 0 26 122 246 284 511 249 408 385 641 372 641 -6 0 -159 -245 -371 -595
-187 -308 -285 -455 -328 -491 -31 -26 -31 -26 -14 -56 18 -32 15 -50 -5 -30
-23 23 -37 13 -40 -30 -2 -35 -7 -43 -23 -43 -10 0 -26 11 -33 25 -19 33 -2
98 37 143 15 17 36 57 45 87 37 114 111 215 188 257 40 22 56 37 67 66 7 20
11 41 7 45 -10 9 -56 -48 -56 -70 0 -12 -8 -18 -25 -18 -14 0 -25 2 -25 5 0 3
67 105 148 228 285 428 417 667 525 957 81 217 110 388 111 645 0 212 -13 321
-55 471 -15 56 -35 144 -43 195 -8 52 -18 104 -21 115 -5 16 -2 23 14 27 12 3
21 13 21 24 0 10 5 24 10 29 7 7 -9 9 -50 6 -76 -6 -110 8 -160 66 -44 49
-160 232 -160 251 0 17 35 5 90 -30 50 -31 56 -39 113 -152 22 -43 45 -81 52
-84 7 -2 56 5 109 16 53 12 109 21 125 21 27 0 30 -3 33 -36 3 -33 7 -38 51
-54 27 -10 72 -36 100 -58 62 -47 109 -72 136 -72 11 0 32 -15 48 -34 15 -19
39 -39 53 -44 14 -6 58 -35 99 -66 41 -31 79 -56 84 -56 5 0 7 14 3 31 -3 17
-6 38 -6 45 0 9 -11 14 -30 14 -20 0 -30 5 -30 15 0 8 -18 24 -39 35 -48 24
-75 60 -91 120 -6 25 -13 53 -16 63 -4 12 0 17 16 17 18 0 21 4 16 23 -19 63
-18 96 3 126 28 39 45 39 68 1 24 -41 30 -38 29 13 -1 38 1 42 26 45 18 2 37
-7 64 -30 29 -25 36 -28 30 -13 -15 39 -18 73 -7 79 6 4 11 22 11 40 0 47 -50
116 -136 188 -41 33 -74 64 -74 69 0 5 10 18 23 29 16 16 29 20 52 15 179 -38
245 -26 245 44 0 46 -23 57 -65 31 -48 -30 -131 -32 -151 -5 -17 23 -19 158
-3 203 6 17 9 45 7 63 l-3 33 -25 -37 c-32 -48 -54 -53 -122 -27 -132 49 -140
97 -38 215 45 52 47 57 23 76 -25 22 -242 25 -318 5 -32 -8 -61 -14 -63 -12
-1 2 42 41 98 87 127 105 143 148 53 149 -46 0 -51 19 -14 52 53 47 68 40 195
-87 63 -63 121 -115 128 -115 8 0 47 20 88 45 41 24 79 45 84 45 5 0 18 -7 28
-17 17 -15 18 -15 18 13 0 16 9 47 21 68 24 46 22 72 -15 171 -35 94 -35 169
-1 219 30 44 30 45 5 39 -19 -5 -23 3 -32 62 -2 13 -16 23 -43 31 -52 14 -58
40 -13 52 l33 8 -27 7 c-37 10 -56 50 -64 134 -10 106 25 153 115 153 20 0 23
2 11 10 -18 11 -85 2 -123 -17 -33 -16 -38 -14 -53 30 -11 31 -11 31 -68 -87z
m192 -358 c15 -15 16 -82 2 -109 -12 -21 -45 -26 -56 -8 -11 18 -8 83 5 107
13 24 31 28 49 10z m22 -208 c0 -13 -7 -20 -20 -20 -13 0 -20 7 -20 20 0 13 7
20 20 20 13 0 20 -7 20 -20z m-818 -2102 c22 -73 16 -398 -10 -552 -49 -285
-136 -564 -245 -781 -84 -170 -532 -962 -610 -1080 -48 -73 -87 -116 -99 -109
-4 3 -8 32 -8 65 0 69 36 149 138 311 79 125 77 122 63 114 -6 -4 -47 -60 -90
-124 -43 -65 -86 -123 -95 -131 -14 -12 -16 -9 -16 34 0 65 37 219 67 280 32
64 102 158 273 365 151 183 253 317 277 364 21 42 13 33 -152 -169 -150 -184
-309 -368 -345 -400 -19 -17 -18 -11 10 40 65 118 136 234 289 470 396 613
480 805 502 1145 11 173 15 200 29 200 5 0 15 -19 22 -42z m-1026 -2163 c-4
-14 -22 -43 -41 -64 -34 -38 -165 -134 -201 -148 -24 -9 58 96 156 200 68 72
75 77 83 59 5 -12 7 -32 3 -47z m-518 -484 c-27 -46 -42 -54 -46 -25 -2 14 7
29 24 43 40 32 48 25 22 -18z m762 -156 c0 -25 -28 -85 -39 -85 -17 0 -13 39
6 71 19 32 33 38 33 14z m-126 -56 c-1 -24 -19 -89 -39 -144 -44 -118 -123
-290 -130 -283 -6 6 37 173 77 298 55 173 95 228 92 129z"/>
<path d="M6174 6645 c-30 -51 -27 -72 3 -28 32 45 45 73 34 73 -6 0 -22 -20
-37 -45z"/>
<path d="M6141 6481 c-24 -46 -26 -55 -10 -45 13 8 42 74 35 81 -2 3 -14 -13
-25 -36z"/>
<path d="M5836 5968 c-14 -18 -23 -35 -20 -38 7 -6 54 47 54 61 0 15 -7 10
-34 -23z"/>
<path d="M2670 10471 c-13 -49 -4 -67 29 -56 27 8 28 45 2 76 l-19 24 -12 -44z"/>
<path d="M2040 10480 c-8 -5 -12 -11 -10 -13 11 -10 112 -39 117 -34 3 3 -6
17 -20 31 -27 27 -61 33 -87 16z"/>
<path d="M2525 10430 c-25 -56 -37 -63 -71 -45 -38 20 -63 19 -70 -2 -3 -10
-10 -27 -14 -38 -5 -11 -8 -42 -8 -69 0 -26 -5 -53 -11 -59 -27 -27 -7 -24 35
5 36 26 47 30 54 19 4 -8 6 -20 3 -28 -3 -7 -2 -13 2 -13 8 0 55 104 89 198
27 77 21 99 -9 32z"/>
<path d="M6167 10463 c-4 -3 -7 -21 -7 -39 0 -39 23 -56 58 -43 22 8 29 39 16
73 -6 16 -54 22 -67 9z"/>
<path d="M7398 10432 c41 -52 52 -59 52 -33 0 17 -22 39 -70 66 -8 5 0 -10 18
-33z"/>
<path d="M1636 10445 c-11 -8 -35 -18 -54 -21 l-34 -7 37 -37 c30 -30 36 -43
30 -61 -5 -17 -4 -21 3 -14 13 12 53 155 44 155 -4 0 -16 -7 -26 -15z"/>
<path d="M2797 10400 c-32 -10 -64 -24 -72 -30 -25 -20 -17 -33 15 -27 16 4
32 2 35 -3 3 -5 1 -35 -4 -67 -5 -32 -5 -62 -1 -67 10 -10 130 100 130 118 0
6 11 28 25 48 14 20 25 39 25 42 0 13 -99 4 -153 -14z"/>
<path d="M7570 10345 c-35 -36 -70 -65 -76 -65 -7 0 -17 12 -22 28 -8 24 -10
20 -16 -38 -4 -36 -9 -78 -12 -95 l-4 -30 22 29 c62 81 177 236 175 236 -1 0
-32 -29 -67 -65z"/>
<path d="M8730 10393 c0 -5 15 -14 34 -21 52 -19 71 -48 67 -103 0 -8 -15 -37
-32 -63 -17 -26 -29 -49 -26 -53 20 -20 72 46 83 106 8 40 -14 93 -48 115 -30
19 -78 31 -78 19z"/>
<path d="M1725 10295 c-25 -47 -61 -101 -80 -119 -37 -37 -50 -81 -41 -131 15
-78 34 -48 128 199 26 71 47 131 44 133 -2 2 -25 -35 -51 -82z"/>
<path d="M2989 10334 c-56 -63 -84 -113 -70 -127 15 -14 45 20 86 95 35 64 28
79 -16 32z"/>
<path d="M1430 10335 c0 -12 33 -55 41 -55 15 0 10 26 -9 43 -19 17 -32 22
-32 12z"/>
<path d="M7270 10292 c0 -19 12 -42 22 -42 14 0 5 43 -9 48 -7 2 -13 -1 -13
-6z"/>
<path d="M810 10238 c30 -27 35 -29 38 -15 5 26 -16 47 -47 47 l-26 -1 35 -31z"/>
<path d="M7995 10231 c-16 -10 -39 -29 -50 -42 l-20 -23 29 18 c16 10 44 27
63 38 18 11 33 22 33 24 0 10 -27 2 -55 -15z"/>
<path d="M1520 10225 c0 -16 46 -32 58 -20 8 8 -26 35 -45 35 -7 0 -13 -7 -13
-15z"/>
<path d="M8189 10158 c41 -71 34 -140 -15 -159 l-27 -10 33 -34 c37 -38 51
-42 69 -21 7 8 33 24 59 36 41 20 44 24 27 30 -27 10 -40 27 -54 72 -11 35
-83 118 -102 118 -5 0 0 -15 10 -32z"/>
<path d="M5500 10165 c0 -21 74 -90 112 -105 59 -21 92 -40 135 -74 42 -34 43
-35 140 -33 69 1 113 -4 149 -16 53 -18 63 -30 85 -102 19 -64 43 -105 118
-205 56 -73 71 -100 71 -127 0 -51 16 -73 51 -73 22 0 32 6 41 25 12 26 48 42
67 30 26 -15 6 8 -65 76 -92 89 -193 227 -268 368 -85 158 -74 151 -235 151
-211 1 -275 12 -343 60 -41 29 -58 36 -58 25z"/>
<path d="M1230 10156 c-147 -54 -432 -238 -407 -262 3 -4 35 -1 71 6 36 7 69
9 75 6 5 -4 7 -22 4 -41 -4 -27 -2 -35 9 -35 29 0 84 88 75 120 -3 13 2 20 18
24 12 3 34 21 48 40 42 55 142 91 241 87 29 -1 53 -11 91 -41 29 -22 55 -40
58 -40 31 0 -71 116 -120 136 -40 17 -116 17 -163 0z"/>
<path d="M6255 10101 c-27 -16 -58 -38 -68 -49 -18 -20 -18 -22 6 -84 14 -35
30 -82 36 -104 17 -63 32 -70 68 -31 17 17 36 50 42 72 22 81 8 225 -22 225
-7 0 -34 -13 -62 -29z"/>
<path d="M3044 10074 c-9 -36 9 -69 53 -97 21 -14 40 -23 42 -21 11 10 -62
144 -79 144 -5 0 -13 -12 -16 -26z"/>
<path d="M3216 10020 c-3 -39 -4 -82 -1 -95 3 -14 7 -36 10 -50 3 -14 10 -23
15 -20 11 7 14 193 4 219 -12 32 -21 14 -28 -54z"/>
<path d="M8046 10061 c-4 -5 -1 -22 5 -38 11 -28 11 -28 21 -6 16 34 -8 74
-26 44z"/>
<path d="M2494 10001 c-55 -34 -85 -92 -100 -193 -5 -36 -3 -48 6 -48 8 0 49
21 93 47 44 26 103 55 131 64 28 10 45 18 38 18 -8 1 -30 18 -50 39 -28 28
-36 44 -34 65 3 24 0 27 -25 27 -15 0 -42 -9 -59 -19z"/>
<path d="M7853 9975 c0 -22 2 -30 4 -17 2 12 2 30 0 40 -3 9 -5 -1 -4 -23z"/>
<path d="M2790 9985 c-7 -9 -15 -38 -18 -64 -4 -46 -2 -51 38 -95 24 -26 45
-44 48 -42 2 3 -12 28 -32 56 l-37 51 22 39 c29 52 12 95 -21 55z"/>
<path d="M710 9951 c0 -21 25 -51 41 -51 19 0 21 31 4 50 -23 25 -45 26 -45 1z"/>
<path d="M7366 9941 c-9 -16 -16 -38 -15 -48 0 -10 10 1 21 25 22 50 18 69 -6
23z"/>
<path d="M7972 9919 c-61 -30 -103 -73 -136 -136 -21 -41 -20 -50 3 -56 25 -6
38 3 42 32 3 17 30 45 86 88 l82 64 21 -21 c22 -22 36 -25 45 -10 8 12 -48 70
-68 70 -7 0 -41 -14 -75 -31z"/>
<path d="M7431 9897 c-30 -37 -54 -137 -32 -137 11 0 37 64 46 113 8 39 4 45
-14 24z"/>
<path d="M7547 9889 c-24 -14 -43 -55 -63 -134 -11 -43 -28 -80 -46 -101 -16
-18 -28 -41 -26 -50 6 -32 113 84 152 166 44 92 49 124 21 127 -11 2 -28 -2
-38 -8z"/>
<path d="M2123 9836 c-23 -17 -57 -40 -75 -51 -22 -14 -34 -29 -36 -48 -2 -15
-9 -27 -16 -27 -33 0 -116 -178 -97 -208 6 -10 22 -2 67 30 32 24 71 51 86 61
16 10 35 34 44 55 27 66 75 205 72 212 -2 4 -22 -7 -45 -24z"/>
<path d="M8610 9844 c0 -6 10 -37 21 -70 17 -46 22 -84 23 -166 1 -104 7 -131
21 -87 16 48 7 156 -20 235 -24 73 -45 113 -45 88z"/>
<path d="M1182 9802 c-31 -33 -47 -72 -31 -72 6 0 24 7 40 16 52 26 80 16 111
-41 18 -32 28 -65 28 -93 0 -96 51 11 53 113 2 67 1 70 -27 83 -15 8 -54 16
-87 19 -56 5 -60 4 -87 -25z"/>
<path d="M2216 9808 c-7 -13 -29 -60 -47 -106 -28 -71 -31 -84 -19 -92 20 -13
116 -32 138 -28 28 5 57 76 57 141 0 52 -3 62 -28 83 -36 31 -82 32 -101 2z"/>
<path d="M8366 9789 c-19 -33 -14 -52 8 -28 17 18 30 59 19 59 -5 0 -17 -14
-27 -31z"/>
<path d="M2583 9784 c-38 -19 -42 -45 -13 -74 16 -16 33 -20 80 -20 35 0 60 4
60 10 0 30 -32 81 -55 90 -33 13 -34 13 -72 -6z"/>
<path d="M5623 9784 c-3 -9 1 -65 10 -123 21 -129 22 -223 3 -259 -18 -35 -54
-68 -86 -80 -24 -9 -23 -10 27 -35 128 -65 193 -71 383 -32 68 14 124 25 125
25 2 0 -16 29 -40 64 -40 60 -55 96 -84 203 -18 68 -61 94 -211 130 -25 6 -39
17 -48 38 -27 63 -38 80 -55 83 -9 2 -20 -4 -24 -14z"/>
<path d="M7715 9763 c-76 -44 -115 -81 -115 -108 0 -11 -7 -31 -16 -43 -14
-21 -14 -23 8 -31 13 -4 41 -11 63 -15 22 -4 48 -9 58 -12 14 -4 18 -1 16 13
-2 10 9 43 24 74 22 44 27 68 25 107 l-3 50 -60 -35z"/>
<path d="M802 9764 c-12 -8 -22 -21 -22 -29 0 -19 57 -2 84 25 l20 20 -30 0
c-16 0 -40 -7 -52 -16z"/>
<path d="M1725 9758 c-4 -10 -4 -26 0 -35 8 -17 8 -17 12 0 3 9 3 25 0 35 -4
16 -4 16 -12 0z"/>
<path d="M7987 9603 c-11 -10 -8 -90 4 -117 12 -26 63 -56 95 -56 16 0 16 1 1
18 -9 10 -26 45 -37 77 -26 75 -44 98 -63 78z"/>
<path d="M995 9571 c-8 -14 19 -67 55 -111 36 -41 38 -24 6 45 -25 55 -50 82
-61 66z"/>
<path d="M1706 9440 c-11 -222 16 -490 56 -537 6 -7 19 -13 29 -13 28 0 25 53
-20 327 -22 131 -44 267 -48 303 -9 63 -9 60 -17 -80z"/>
<path d="M215 9498 c-24 -62 -22 -95 8 -126 26 -26 26 -26 48 -6 37 33 39 55
11 107 -38 71 -47 75 -67 25z"/>
<path d="M7376 9494 c-10 -25 -7 -84 4 -84 15 0 30 35 30 69 0 33 -23 43 -34
15z"/>
<path d="M1158 9463 c-9 -2 -21 -17 -28 -32 -14 -34 -29 -141 -20 -141 3 0 14
15 24 33 10 17 36 55 57 84 22 29 39 55 39 58 0 6 -47 5 -72 -2z"/>
<path d="M7805 9440 c-10 -17 14 -39 53 -50 49 -13 53 -4 14 31 -34 30 -56 36
-67 19z"/>
<path d="M8260 9415 c1 -17 49 -70 57 -62 4 4 -7 22 -25 40 -18 17 -32 27 -32
22z"/>
<path d="M1 9393 c0 -5 23 -25 50 -46 28 -21 56 -52 63 -68 12 -28 13 -29 29
-11 22 24 21 34 -4 66 -33 42 -141 88 -138 59z"/>
<path d="M8012 9378 c-17 -17 -15 -60 4 -108 19 -47 39 -60 91 -60 l38 1 -35
29 c-19 17 -41 30 -48 30 -11 0 -13 8 -7 33 14 60 12 82 -10 85 -11 1 -26 -3
-33 -10z"/>
<path d="M417 9336 c-87 -31 -138 -89 -150 -169 -3 -22 -18 -54 -32 -72 -24
-32 -34 -75 -17 -75 16 0 50 45 93 123 24 43 56 93 72 113 29 35 93 74 121 74
8 0 18 5 21 10 9 15 -63 12 -108 -4z"/>
<path d="M570 9343 c0 -5 21 -26 46 -47 62 -52 84 -102 84 -193 0 -76 9 -93
34 -67 44 43 -23 253 -92 288 -40 20 -72 29 -72 19z"/>
<path d="M7732 9328 c-20 -20 -13 -30 18 -23 40 9 58 -4 95 -66 36 -62 61 -71
59 -22 -4 78 -126 157 -172 111z"/>
<path d="M7061 9294 c-41 -34 -56 -63 -42 -77 12 -12 91 62 91 87 0 23 -14 20
-49 -10z"/>
<path d="M7440 9311 c0 -10 17 -15 49 -13 11 0 13 -15 8 -77 -8 -100 11 -130
36 -58 8 21 20 21 94 2 66 -17 83 -19 83 -6 0 4 -20 14 -44 21 -55 15 -78 39
-74 76 2 22 -3 31 -22 40 -37 18 -130 28 -130 15z"/>
<path d="M8405 9310 c3 -5 15 -10 25 -10 10 0 22 5 25 10 4 6 -7 10 -25 10
-18 0 -29 -4 -25 -10z"/>
<path d="M1295 9290 c22 -38 69 -99 73 -95 6 6 -44 80 -66 97 -13 11 -14 11
-7 -2z"/>
<path d="M8282 9240 c0 -19 2 -27 5 -17 2 9 2 25 0 35 -3 9 -5 1 -5 -18z"/>
<path d="M895 9210 c3 -5 15 -10 25 -10 10 0 22 5 25 10 4 6 -7 10 -25 10 -18
0 -29 -4 -25 -10z"/>
<path d="M1598 9195 c-12 -20 -19 -120 -10 -145 8 -20 11 -22 16 -9 9 20 3
167 -6 154z"/>
<path d="M7260 9166 c0 -24 16 -43 27 -32 8 8 -6 56 -17 56 -6 0 -10 -11 -10
-24z"/>
<path d="M1425 9143 c20 -20 94 -43 101 -32 11 18 -12 31 -63 36 -31 4 -44 2
-38 -4z"/>
<path d="M8050 9135 c-19 -23 -8 -50 23 -53 57 -7 77 39 26 57 -39 13 -34 14
-49 -4z"/>
<path d="M1921 9118 c-1 -42 -11 -58 -37 -58 -28 0 -39 -19 -30 -55 5 -18 15
-26 42 -31 l36 -7 -6 -78 c-7 -70 -5 -80 13 -98 27 -27 33 -26 69 4 23 19 38
50 61 119 17 51 31 96 31 100 0 3 -13 6 -30 6 -28 0 -30 -2 -30 -39 0 -52 -8
-71 -31 -71 -30 0 -42 35 -27 76 9 27 10 37 1 42 -7 4 -23 32 -37 62 -20 45
-25 50 -25 28z"/>
<path d="M1325 9120 c-9 -14 55 -44 67 -32 18 18 0 42 -31 42 -16 0 -32 -4
-36 -10z"/>
<path d="M456 9041 c-7 -11 48 -87 73 -100 11 -6 41 -11 67 -11 l48 0 -44 45
c-59 60 -128 92 -144 66z"/>
<path d="M4990 9015 c0 -39 23 -75 83 -132 119 -113 254 -175 428 -198 76 -10
124 -22 148 -36 50 -30 139 -35 242 -15 87 18 309 86 309 96 -1 3 -25 22 -54
42 -30 21 -60 51 -67 68 -8 16 -20 30 -27 30 -16 0 -96 -40 -177 -90 l-63 -39
-169 25 c-343 51 -443 87 -565 203 -42 39 -78 71 -82 71 -3 0 -6 -11 -6 -25z"/>
<path d="M8118 9028 c-16 -5 -28 -16 -28 -23 0 -24 41 -125 51 -125 12 0 69
80 69 98 0 9 -6 12 -16 8 -14 -5 -16 -1 -11 24 6 26 4 30 -16 29 -12 0 -34 -5
-49 -11z"/>
<path d="M1391 9010 c-52 -12 -66 -31 -49 -66 17 -38 59 -42 113 -11 50 28 59
62 20 77 -30 11 -36 11 -84 0z"/>
<path d="M1206 8910 c-32 -22 -68 -40 -80 -40 -38 0 -66 -12 -66 -28 0 -8 -32
-49 -71 -89 -40 -41 -69 -76 -66 -80 4 -3 60 30 124 74 65 44 142 93 171 108
55 30 77 56 68 81 -8 20 -14 18 -80 -26z"/>
<path d="M8254 8937 c-9 -24 12 -78 46 -118 36 -42 39 -23 9 53 -25 65 -45 89
-55 65z"/>
<path d="M1609 8914 c-10 -28 -4 -64 12 -64 5 0 9 20 9 45 0 51 -6 57 -21 19z"/>
<path d="M296 8923 c-14 -14 -4 -52 24 -91 52 -72 68 -47 25 38 -26 51 -38 64
-49 53z"/>
<path d="M7700 8816 c0 -4 19 -31 43 -59 75 -90 92 -118 76 -128 -8 -5 -22 -9
-32 -9 -27 0 -75 -28 -87 -50 -13 -24 -9 -25 65 -34 27 -4 53 -10 57 -14 5 -5
11 -32 15 -61 4 -33 12 -55 21 -59 20 -7 56 38 72 91 13 45 25 38 35 -24 4
-21 13 -45 21 -56 14 -16 15 -14 9 27 -12 91 -35 142 -88 190 -28 25 -85 78
-129 119 -43 41 -78 71 -78 67z"/>
<path d="M1215 8797 c-11 -9 -14 -16 -8 -20 6 -4 22 2 34 13 18 14 20 19 8 20
-8 0 -23 -6 -34 -13z"/>
<path d="M1465 8789 c-16 -6 -14 -8 13 -8 33 -1 41 4 20 12 -7 2 -22 1 -33 -4z"/>
<path d="M793 8777 c-25 -11 -31 -27 -10 -27 19 0 40 16 36 28 -3 6 -12 6 -26
-1z"/>
<path d="M8340 8715 c0 -14 5 -25 10 -25 6 0 10 11 10 25 0 14 -4 25 -10 25
-5 0 -10 -11 -10 -25z"/>
<path d="M1940 8701 c0 -11 4 -22 8 -25 14 -9 35 12 29 28 -9 23 -37 20 -37
-3z"/>
<path d="M1802 8666 c-23 -18 -61 -38 -86 -45 -37 -9 -47 -16 -52 -38 -19 -75
117 -67 164 9 26 42 38 93 24 102 -6 3 -28 -9 -50 -28z"/>
<path d="M730 8655 c-92 -49 -240 -66 -337 -39 -13 3 -23 2 -23 -3 0 -14 73
-41 145 -54 81 -15 91 -21 87 -54 l-4 -27 32 18 c18 11 61 52 96 93 84 98 85
109 4 66z"/>
<path d="M7418 8568 c-69 -53 -82 -71 -31 -45 34 18 122 96 108 96 -5 1 -40
-23 -77 -51z"/>
<path d="M1247 8562 c-29 -26 -64 -56 -79 -65 -22 -14 -28 -25 -28 -52 0 -38
10 -44 30 -20 20 24 36 18 77 -27 111 -123 129 -138 164 -138 45 1 111 31 177
82 68 53 77 69 58 106 -8 16 -21 34 -30 41 -28 23 -134 16 -360 -25 -53 -10
-45 13 17 46 47 25 65 54 53 85 -9 24 -24 18 -79 -33z"/>
<path d="M8073 8573 c-4 -21 -7 -65 -8 -98 0 -54 2 -60 20 -57 11 2 57 6 103
9 54 4 82 10 82 18 0 16 -38 49 -80 70 -43 21 -90 64 -90 82 0 29 -20 11 -27
-24z"/>
<path d="M8373 8575 c0 -22 2 -30 4 -17 2 12 2 30 0 40 -3 9 -5 -1 -4 -23z"/>
<path d="M2753 8489 c-31 -32 -4 -95 46 -109 87 -23 115 -29 123 -24 13 8 -33
84 -68 110 -38 30 -85 40 -101 23z"/>
<path d="M7650 8440 c0 -25 4 -39 10 -35 6 3 10 19 10 35 0 16 -4 32 -10 35
-6 4 -10 -10 -10 -35z"/>
<path d="M8325 8460 c-12 -19 15 -38 84 -59 140 -43 245 -114 310 -212 58 -87
74 -152 69 -277 -5 -111 10 -128 21 -25 10 88 -5 180 -39 249 -70 143 -301
334 -404 334 -19 0 -38 -5 -41 -10z"/>
<path d="M285 8430 c-8 -13 13 -40 31 -40 17 0 18 22 2 38 -15 15 -25 15 -33
2z"/>
<path d="M577 8405 c-9 -21 9 -28 27 -9 21 20 20 24 -3 24 -10 0 -21 -7 -24
-15z"/>
<path d="M8380 8294 c-11 -58 -11 -68 4 -82 15 -15 16 -10 16 66 0 45 -2 82
-4 82 -2 0 -9 -30 -16 -66z"/>
<path d="M7540 8311 c-112 -34 -198 -148 -234 -308 -9 -40 -16 -80 -16 -90 1
-23 59 66 112 172 22 44 51 95 65 113 16 21 22 39 18 52 -5 17 -2 20 22 20 15
1 48 12 73 25 44 23 44 24 15 24 -16 -1 -41 -4 -55 -8z"/>
<path d="M7690 8276 c0 -23 29 -46 58 -46 l27 1 -33 29 c-35 33 -52 38 -52 16z"/>
<path d="M8375 8110 c-11 -18 -19 -213 -8 -209 16 6 93 99 93 113 0 17 -58
106 -69 106 -5 0 -13 -4 -16 -10z"/>
<path d="M6748 8089 c-34 -25 -36 -39 -4 -39 40 0 56 11 56 36 0 29 -16 30
-52 3z"/>
<path d="M7520 8003 c1 -5 7 -19 15 -33 10 -18 14 -20 15 -8 0 23 -11 48 -21
48 -5 0 -9 -3 -9 -7z"/>
<path d="M7862 7910 c-15 -45 -26 -234 -13 -226 13 9 42 97 42 132 0 16 -4 52
-8 79 l-9 50 -12 -35z"/>
<path d="M8286 7921 c-13 -21 -125 -312 -140 -363 -40 -139 -3 -71 71 132 65
179 92 269 69 231z"/>
<path d="M556 7873 c-5 -16 -26 -175 -26 -195 0 -5 4 -8 8 -8 12 0 42 122 42
169 0 42 -15 63 -24 34z"/>
<path d="M1147 7772 c-44 -102 -80 -116 -145 -57 -21 19 -51 39 -66 45 -35 13
-140 13 -190 -1 -81 -23 -174 -154 -181 -257 -3 -44 -3 -49 3 -22 5 19 13 45
20 56 30 56 140 123 216 131 37 5 47 1 79 -27 41 -36 46 -31 17 18 l-20 32 26
0 c41 0 137 -30 158 -50 18 -17 18 -20 -9 -101 -15 -46 -30 -90 -33 -96 -2 -7
0 -13 6 -13 11 0 73 132 114 243 52 144 57 217 5 99z"/>
<path d="M6710 7757 c0 -22 35 -48 55 -41 14 6 16 3 10 -15 -4 -15 -2 -23 10
-27 9 -4 13 -13 10 -24 -9 -27 22 -33 40 -7 18 26 20 98 3 115 -17 17 -128 16
-128 -1z"/>
<path d="M7331 7725 c-1 -6 14 -45 33 -88 19 -43 42 -110 52 -148 10 -38 21
-69 24 -69 4 0 12 18 19 39 9 32 19 43 56 60 25 12 45 27 45 35 0 18 -55 65
-83 71 -12 2 -35 6 -52 7 -28 3 -34 8 -82 84 -6 11 -12 14 -12 9z"/>
<path d="M8669 7679 c-56 -40 -53 -38 -46 -45 14 -14 107 43 107 67 0 16 -16
10 -61 -22z"/>
<path d="M1911 7653 c-12 -14 -24 -37 -27 -50 -10 -36 3 -94 25 -116 20 -20
41 -16 41 8 0 7 10 15 23 17 32 4 35 65 7 124 -25 51 -40 55 -69 17z"/>
<path d="M6665 7645 c56 -473 20 -728 -169 -1218 -47 -123 -9 -61 52 86 67
158 104 268 134 402 38 172 35 600 -7 725 l-14 45 4 -40z"/>
<path d="M6963 7630 c-18 -11 -33 -26 -33 -34 0 -33 130 -173 150 -161 36 23
50 121 26 180 -14 33 -18 35 -63 35 -30 0 -60 -7 -80 -20z m135 -100 c3 -30 2
-32 -12 -21 -19 16 -22 65 -3 59 6 -3 13 -20 15 -38z"/>
<path d="M1400 7538 c-38 -63 -46 -128 -15 -128 45 0 85 77 71 135 -9 34 -32
31 -56 -7z"/>
<path d="M6225 7540 c-3 -11 -2 -28 4 -37 8 -15 10 -11 11 20 0 41 -5 47 -15
17z"/>
<path d="M4819 7539 c-10 -6 -4 -9 19 -9 17 0 32 2 32 4 0 9 -39 13 -51 5z"/>
<path d="M2758 7533 c-25 -6 -23 -14 18 -61 26 -31 43 -42 64 -42 55 0 97 91
48 104 -26 6 -104 6 -130 -1z"/>
<path d="M4684 7499 c-71 -27 -144 -102 -188 -192 -48 -98 -66 -174 -66 -282
0 -171 50 -285 180 -415 47 -47 109 -98 140 -114 72 -39 52 -14 -52 65 -132
101 -212 221 -237 354 -42 229 48 449 230 561 81 51 79 57 -7 23z"/>
<path d="M4920 7516 c0 -2 29 -22 64 -44 77 -48 106 -95 106 -170 0 -66 -42
-131 -102 -161 -24 -11 -52 -21 -61 -21 -31 0 -17 -18 27 -35 41 -16 46 -16
81 1 43 20 79 70 95 134 29 108 -31 219 -150 280 -37 19 -60 25 -60 16z"/>
<path d="M6186 7484 c4 -28 -2 -59 -17 -100 -39 -104 -110 -193 -109 -136 1 9
7 46 15 82 14 65 20 158 9 148 -3 -4 -16 -60 -29 -126 -13 -66 -30 -133 -39
-150 -26 -51 -136 -101 -277 -127 -72 -13 -73 -13 -24 -14 65 -1 171 22 226
48 56 27 62 26 55 -6 -21 -87 -209 -355 -237 -337 -9 5 -74 -25 -67 -32 2 -2
19 1 37 6 56 16 32 -10 -102 -110 -70 -52 -123 -96 -118 -98 39 -13 391 291
406 351 4 13 18 28 34 33 15 6 38 25 50 43 21 30 22 32 5 29 -15 -2 -18 2 -16
22 6 45 58 144 110 209 101 124 123 184 98 261 l-15 45 5 -41z"/>
<path d="M1284 7444 c-18 -64 -13 -87 18 -82 20 3 23 8 20 38 -2 24 3 39 14
47 16 12 16 14 -1 33 -10 11 -22 20 -26 20 -5 0 -16 -25 -25 -56z"/>
<path d="M6822 7491 c-8 -4 -12 -19 -10 -32 2 -19 11 -25 38 -29 19 -3 50 -3
68 0 l34 5 -24 22 c-21 19 -68 43 -86 43 -4 0 -13 -4 -20 -9z"/>
<path d="M1186 7415 c-30 -46 -11 -112 21 -70 14 21 18 95 4 95 -5 0 -16 -11
-25 -25z"/>
<path d="M898 7393 c-22 -6 -23 -29 -2 -37 30 -12 75 -6 81 10 10 27 -29 40
-79 27z"/>
<path d="M1477 7357 c-22 -16 -31 -72 -20 -117 l10 -35 13 40 c7 22 24 57 37
77 12 21 23 40 23 43 0 10 -47 5 -63 -8z"/>
<path d="M4809 7347 c-100 -65 -118 -277 -38 -434 16 -32 45 -76 65 -98 l35
-40 -36 65 c-99 177 -117 295 -63 408 50 106 178 132 178 37 0 -40 15 -53 29
-26 24 45 -39 111 -105 111 -17 0 -46 -10 -65 -23z"/>
<path d="M8650 7341 c11 -16 27 -45 36 -63 l15 -33 -5 37 c-5 43 -32 88 -53
88 -11 0 -10 -7 7 -29z"/>
<path d="M1579 7291 c13 -23 59 -53 74 -48 15 5 -49 67 -69 67 -11 0 -12 -5
-5 -19z"/>
<path d="M629 7253 c34 -45 51 -60 51 -46 0 5 -19 27 -42 48 l-42 40 33 -42z"/>
<path d="M7093 7258 c-6 -7 -18 -30 -26 -50 -8 -20 -27 -44 -41 -53 -38 -25
-32 -48 27 -113 61 -66 90 -111 107 -167 18 -58 25 -61 39 -15 6 22 34 69 61
106 28 36 50 67 50 70 0 2 -13 -5 -29 -17 -16 -12 -36 -19 -43 -17 -7 3 -19
32 -26 64 -12 59 -79 195 -98 201 -6 2 -16 -2 -21 -9z"/>
<path d="M8130 7230 c0 -37 74 -182 118 -231 81 -91 217 -120 327 -70 60 28
43 39 -25 17 -69 -23 -136 -20 -195 8 -99 46 -143 100 -180 219 -21 70 -45
100 -45 57z"/>
<path d="M7410 7215 c0 -14 5 -25 10 -25 6 0 10 11 10 25 0 14 -4 25 -10 25
-5 0 -10 -11 -10 -25z"/>
<path d="M8010 7201 c-21 -40 -6 -99 23 -88 18 7 31 58 22 87 -8 25 -31 26
-45 1z"/>
<path d="M1880 7133 c-17 -26 -30 -56 -30 -67 1 -19 3 -18 21 7 11 15 25 24
31 21 5 -4 -18 -35 -52 -69 -39 -40 -61 -69 -58 -80 6 -31 27 -28 62 9 23 26
41 36 62 36 42 0 54 16 54 72 0 37 -4 50 -20 58 -12 6 -20 21 -20 35 0 38 -17
30 -50 -22z"/>
<path d="M1669 7120 c-37 -36 -31 -52 13 -39 40 11 62 33 55 53 -10 24 -35 19
-68 -14z"/>
<path d="M7728 7085 c-42 -80 -118 -251 -118 -265 0 -23 21 -7 44 33 34 58
117 267 114 286 -2 9 -20 -16 -40 -54z"/>
<path d="M1314 7086 c-8 -21 12 -44 25 -30 6 5 4 16 -4 28 -13 18 -15 18 -21
2z"/>
<path d="M7860 7078 c-35 -38 -26 -48 40 -48 63 0 72 7 43 32 -41 36 -61 40
-83 16z"/>
<path d="M7550 6961 c-67 -100 -118 -159 -245 -287 -88 -88 -184 -180 -214
-203 -70 -54 -84 -43 -42 35 17 32 29 59 26 62 -4 4 -42 -53 -77 -116 -18 -35
-89 -89 -126 -99 -37 -9 -55 20 -49 81 3 36 10 54 28 67 22 17 23 19 4 19 -30
0 -93 -19 -100 -31 -4 -5 3 -17 15 -27 17 -14 23 -32 27 -86 4 -47 10 -69 21
-73 8 -4 44 8 80 26 35 18 69 28 73 24 18 -18 20 -68 4 -88 -15 -19 -15 -19
-9 8 l6 28 -53 -21 c-81 -32 -137 -90 -124 -130 9 -29 41 -24 72 11 61 69 115
76 173 23 49 -44 63 -38 26 11 -38 50 -49 86 -36 119 6 16 48 64 94 107 103
98 280 300 363 417 70 99 158 240 152 246 -2 2 -42 -53 -89 -123z"/>
<path d="M5638 7053 c7 -3 16 -2 19 1 4 3 -2 6 -13 5 -11 0 -14 -3 -6 -6z"/>
<path d="M1110 6981 c-8 -5 -32 -11 -52 -15 -29 -5 -38 -12 -38 -27 0 -12 -10
-23 -27 -30 -31 -12 -43 -26 -43 -53 0 -16 2 -17 17 -5 13 11 17 11 20 2 7
-20 68 -16 87 6 10 11 15 24 12 30 -9 14 19 67 46 85 24 17 6 22 -22 7z"/>
<path d="M1510 6948 c0 -41 0 -41 20 -23 20 18 21 18 41 -3 25 -28 59 -29 59
-2 0 14 -15 27 -50 45 -27 14 -54 25 -60 25 -5 0 -10 -19 -10 -42z"/>
<path d="M6720 6913 c0 -22 2 -25 10 -13 13 20 13 40 0 40 -5 0 -10 -12 -10
-27z"/>
<path d="M7752 6918 c-21 -21 -14 -38 16 -38 34 0 68 23 58 38 -9 16 -59 15
-74 0z"/>
<path d="M7890 6901 c0 -11 4 -22 8 -25 14 -9 35 12 29 28 -9 23 -37 20 -37
-3z"/>
<path d="M3472 6815 c-18 -25 -49 -54 -70 -64 l-37 -20 32 -1 c40 0 86 39 108
93 20 49 7 46 -33 -8z"/>
<path d="M793 6843 c-16 -6 -16 -62 -3 -158 17 -118 26 -128 60 -72 27 43 27
136 0 195 -18 40 -29 47 -57 35z"/>
<path d="M2982 6835 c-47 -21 -51 -43 -14 -77 27 -23 41 -28 84 -28 59 0 178
20 178 30 0 12 -143 79 -180 85 -20 3 -49 -1 -68 -10z"/>
<path d="M6700 6816 c0 -31 6 -34 13 -6 3 11 1 23 -4 26 -5 3 -9 -6 -9 -20z"/>
<path d="M910 6750 c-23 -15 34 -31 83 -23 31 5 36 8 21 13 -39 14 -89 19
-104 10z"/>
<path d="M7690 6748 c0 -3 39 -18 87 -33 148 -46 155 -56 183 -250 11 -74 25
-156 30 -181 29 -128 121 -299 158 -292 23 4 27 45 7 68 -26 28 -50 103 -99
303 -63 257 -95 320 -180 364 -27 14 -186 32 -186 21z"/>
<path d="M6682 6715 c0 -16 2 -22 5 -12 2 9 2 23 0 30 -3 6 -5 -1 -5 -18z"/>
<path d="M1384 6699 c-45 -50 -142 -64 -207 -29 -39 21 -107 27 -107 10 0 -6
12 -20 28 -33 42 -34 144 -138 174 -177 24 -32 27 -34 43 -19 16 15 15 19 -4
56 -18 37 -19 42 -5 62 9 12 40 36 70 52 34 20 56 40 60 54 12 46 -19 60 -52
24z"/>
<path d="M5565 6703 c-33 -11 -44 -18 -32 -21 27 -6 80 6 103 23 19 14 19 14
-1 14 -11 0 -42 -8 -70 -16z"/>
<path d="M7522 6655 c-48 -45 -27 -46 24 0 21 19 33 34 26 35 -7 0 -29 -16
-50 -35z"/>
<path d="M1710 6661 c0 -10 63 -42 70 -35 6 7 -42 43 -57 44 -7 0 -13 -4 -13
-9z"/>
<path d="M5090 6660 c0 -5 11 -10 25 -10 14 0 25 5 25 10 0 6 -11 10 -25 10
-14 0 -25 -4 -25 -10z"/>
<path d="M5395 6660 c3 -5 19 -10 36 -10 16 0 29 5 29 10 0 6 -16 10 -36 10
-21 0 -33 -4 -29 -10z"/>
<path d="M1616 6618 c9 -29 28 -42 32 -22 4 16 -15 44 -30 44 -5 0 -6 -10 -2
-22z"/>
<path d="M6657 6620 c-13 -32 -24 -100 -16 -100 11 0 31 77 26 98 -3 14 -5 15
-10 2z"/>
<path d="M1903 6584 c-18 -19 -29 -23 -50 -18 l-27 7 23 -31 c48 -67 74 -61
86 21 8 52 1 57 -32 21z"/>
<path d="M1494 6589 c-12 -21 -18 -143 -6 -135 14 9 32 71 32 114 0 32 -13 42
-26 21z"/>
<path d="M5405 6500 c-27 -18 -28 -20 -9 -20 12 0 32 9 45 20 32 26 4 27 -36
0z"/>
<path d="M1737 6488 c-26 -11 -46 -26 -44 -32 12 -37 168 -68 175 -35 3 17
-58 89 -74 89 -5 -1 -31 -10 -57 -22z"/>
<path d="M5300 6460 c0 -5 9 -10 20 -10 11 0 20 5 20 10 0 6 -9 10 -20 10 -11
0 -20 -4 -20 -10z"/>
<path d="M4914 6439 c-3 -5 6 -9 20 -9 31 0 34 6 6 13 -11 3 -23 1 -26 -4z"/>
<path d="M5208 6433 c12 -2 30 -2 40 0 9 3 -1 5 -23 4 -22 0 -30 -2 -17 -4z"/>
<path d="M7586 6404 c-37 -38 -78 -127 -83 -182 l-4 -47 25 30 c14 17 47 59
74 95 71 97 115 91 151 -22 18 -54 27 -54 42 0 33 118 9 152 -106 152 -65 0
-75 -3 -99 -26z"/>
<path d="M7413 6324 c8 -106 16 -154 28 -154 13 0 11 133 -2 186 -20 80 -33
65 -26 -32z"/>
<path d="M3051 6365 c-40 -14 -83 -25 -95 -25 -30 0 -43 -11 -56 -44 -13 -34
-6 -75 22 -131 26 -52 47 -75 68 -75 11 0 20 -10 24 -25 8 -31 65 -97 78 -89
13 8 47 -25 70 -69 20 -40 23 -143 3 -140 -33 4 -89 -82 -100 -153 -13 -83 78
-187 163 -187 62 0 137 48 247 158 140 140 305 361 305 408 0 26 -128 120
-374 272 -144 89 -218 125 -252 125 -16 -1 -62 -12 -103 -25z m-41 -205 c-10
-19 -30 -36 -30 -26 0 16 24 55 31 50 5 -3 5 -14 -1 -24z m440 -8 c25 -12 60
-22 78 -22 46 0 72 -16 72 -45 0 -34 -40 -59 -80 -50 -24 5 -37 2 -53 -12 -36
-32 -192 -79 -225 -68 -9 3 -30 24 -47 48 -24 34 -30 52 -30 97 0 54 1 55 35
67 53 20 195 11 250 -15z m300 -180 c0 -37 -78 -86 -215 -134 -115 -41 -125
-42 -125 -15 0 26 34 77 74 108 26 21 169 56 234 58 25 1 32 -3 32 -17z m-260
-278 c0 -23 -113 -132 -154 -149 -43 -18 -108 -19 -124 -3 -18 18 -15 73 6 90
9 9 33 18 52 21 19 2 73 18 119 35 87 31 101 32 101 6z"/>
<path d="M6590 6364 c0 -14 4 -23 10 -19 6 3 10 15 10 26 0 10 -4 19 -10 19
-5 0 -10 -12 -10 -26z"/>
<path d="M6651 6371 c-18 -33 -13 -79 9 -91 25 -14 42 16 38 68 -3 42 -30 55
-47 23z"/>
<path d="M7274 6379 c-3 -6 -25 -19 -48 -29 -38 -17 -39 -19 -14 -19 17 -1 40
10 60 29 18 16 28 30 21 30 -6 0 -15 -5 -19 -11z"/>
<path d="M6421 6281 c-23 -45 -25 -51 -13 -51 12 0 47 78 39 86 -3 3 -15 -12
-26 -35z"/>
<path d="M6555 6291 c-7 -12 -25 -245 -24 -316 1 -19 7 -4 19 42 10 39 30 93
44 121 21 42 24 55 15 85 -13 47 -43 85 -54 68z"/>
<path d="M1597 6213 c-11 -10 -8 -53 3 -53 6 0 10 14 10 30 0 31 -2 35 -13 23z"/>
<path d="M7595 6205 c-60 -21 -87 -65 -40 -65 21 0 25 -5 25 -29 0 -15 -9 -40
-20 -54 -11 -14 -20 -30 -20 -37 0 -16 67 -42 98 -38 34 4 39 26 9 37 -21 8
-27 19 -33 56 -8 57 5 89 46 110 60 31 10 46 -65 20z"/>
<path d="M7874 6133 c-15 -21 -52 -63 -82 -95 -52 -55 -56 -77 -10 -59 47 18
106 98 122 164 8 36 4 34 -30 -10z"/>
<path d="M7100 6111 c0 -6 11 -27 25 -47 29 -43 31 -64 10 -104 -18 -34 -31
-37 -56 -14 -28 25 -41 14 -24 -20 8 -15 15 -32 15 -36 0 -5 -32 -20 -70 -35
-48 -18 -88 -43 -126 -77 -56 -52 -69 -80 -15 -35 50 42 139 89 163 85 16 -2
28 -16 40 -48 l18 -45 -6 49 c-7 52 2 66 44 66 19 0 22 5 22 43 0 23 5 49 10
57 8 13 11 12 24 -5 10 -13 15 -15 16 -7 0 31 34 83 66 102 18 12 52 27 76 34
l43 14 -38 1 c-21 1 -54 -6 -74 -14 -49 -21 -87 -19 -109 6 -24 27 -54 43 -54
30z"/>
<path d="M7462 6098 c-18 -18 -15 -59 7 -91 15 -24 19 -26 25 -12 8 21 8 79 0
99 -7 19 -16 20 -32 4z"/>
<path d="M1360 6078 c0 -25 31 -98 42 -98 11 0 2 32 -23 80 -11 21 -18 28 -19
18z"/>
<path d="M6981 6066 c-17 -20 -10 -60 10 -64 23 -4 51 26 47 52 -4 26 -40 33
-57 12z"/>
<path d="M7419 5956 c-6 -30 -15 -60 -19 -66 -5 -7 -32 8 -81 44 -41 31 -77
56 -81 56 -18 0 -5 -20 30 -45 20 -16 94 -87 165 -159 70 -72 127 -126 127
-120 0 6 -23 42 -52 80 -65 86 -75 115 -68 198 3 36 2 66 -2 66 -3 0 -12 -24
-19 -54z"/>
<path d="M1675 5900 c-10 -11 -15 -20 -11 -20 14 0 46 21 46 30 0 16 -16 11
-35 -10z"/>
<path d="M1440 5861 c0 -38 6 -56 24 -78 39 -47 166 -103 166 -74 0 5 -43 52
-95 105 l-95 97 0 -50z"/>
<path d="M7935 5864 c8 -56 14 -74 26 -74 18 0 20 49 4 84 -24 51 -39 46 -30
-10z"/>
<path d="M1193 5865 c-39 -31 -73 -85 -73 -116 0 -22 2 -21 24 11 24 35 45 50
101 66 32 10 46 41 23 55 -22 14 -41 10 -75 -16z"/>
<path d="M1817 5834 c-22 -46 -22 -46 -2 -60 21 -15 59 -11 82 8 29 24 1 98
-38 98 -13 0 -26 -15 -42 -46z"/>
<path d="M1336 5861 c-10 -15 4 -38 30 -50 20 -9 26 -8 30 3 13 34 -42 77 -60
47z"/>
<path d="M7185 5850 c-6 -10 27 -34 63 -45 33 -10 27 12 -10 35 -37 23 -44 24
-53 10z"/>
<path d="M6533 5775 c0 -38 2 -53 4 -32 2 20 2 52 0 70 -2 17 -4 1 -4 -38z"/>
<path d="M6235 5749 c-21 -45 -40 -103 -43 -130 -4 -46 6 -165 13 -157 2 2 13
64 24 139 11 74 27 154 36 177 30 75 10 55 -30 -29z"/>
<path d="M6578 5778 c-21 -37 -18 -275 4 -313 22 -38 23 -15 3 51 -8 27 -15
51 -15 53 0 2 24 -19 54 -48 68 -63 86 -70 202 -78 l92 -6 7 74 c4 41 5 92 3
114 -3 36 -6 40 -32 43 -16 2 -32 0 -37 -5 -4 -4 3 -46 16 -93 14 -46 25 -90
25 -98 0 -32 -29 11 -65 98 -33 80 -41 92 -72 105 -19 8 -62 40 -95 70 -32 30
-63 55 -68 55 -5 0 -15 -10 -22 -22z"/>
<path d="M7370 5754 c0 -5 23 -32 50 -59 50 -49 71 -53 27 -5 -37 41 -77 74
-77 64z"/>
<path d="M1876 5684 c-4 -9 -4 -19 -2 -22 10 -9 36 8 36 23 0 20 -26 19 -34
-1z"/>
<path d="M7096 5641 c-8 -13 32 -232 45 -245 14 -15 11 72 -6 160 -15 78 -27
105 -39 85z"/>
<path d="M7200 5598 c-18 -8 -21 -12 -10 -15 28 -10 50 -36 50 -60 0 -14 4
-21 10 -18 11 7 14 64 4 89 -7 18 -19 19 -54 4z"/>
<path d="M7654 5595 c-8 -21 11 -41 44 -48 34 -7 117 -79 157 -136 27 -41 28
-43 22 -141 -5 -78 -3 -110 10 -147 9 -27 17 -54 19 -60 6 -22 34 -14 46 11 8
20 7 32 -6 60 -9 20 -16 60 -16 98 0 165 -70 278 -218 352 -45 23 -53 24 -58
11z"/>
<path d="M7545 5519 c-43 -38 -47 -76 -10 -85 14 -4 27 -5 28 -3 22 40 57 110
57 114 0 16 -44 1 -75 -26z"/>
<path d="M6163 5445 c0 -22 2 -30 4 -17 2 12 2 30 0 40 -3 9 -5 -1 -4 -23z"/>
<path d="M6360 5453 c0 -42 102 -94 145 -75 37 17 31 28 -27 50 -68 25 -118
36 -118 25z"/>
<path d="M7260 5414 c0 -14 4 -23 10 -19 6 3 10 15 10 26 0 10 -4 19 -10 19
-5 0 -10 -12 -10 -26z"/>
<path d="M7480 5361 c0 -39 23 -57 55 -43 31 14 32 36 3 56 -36 26 -58 21 -58
-13z"/>
<path d="M6230 5348 c0 -53 25 -174 54 -262 27 -80 33 -131 16 -141 -15 -9
-12 -25 5 -25 17 0 20 -16 4 -26 -6 -3 -24 -27 -40 -52 -31 -50 -39 -111 -16
-131 19 -15 38 8 77 97 18 39 36 72 39 72 4 0 20 -14 37 -31 52 -55 167 -132
121 -81 -21 24 -53 98 -61 144 -5 26 -2 40 9 51 8 9 15 25 15 36 0 12 11 26
28 35 26 14 61 46 49 46 -3 0 -25 -11 -48 -25 -24 -14 -57 -25 -72 -25 -28 0
-29 1 -22 43 5 37 4 40 -8 25 -19 -24 -29 -23 -59 10 -40 43 -65 91 -97 187
-26 76 -31 84 -31 53z m123 -275 c56 -85 76 -169 31 -132 -18 15 -94 165 -94
186 0 24 27 2 63 -54z"/>
<path d="M7600 5312 c0 -45 -3 -52 -19 -52 -11 0 -22 -4 -25 -9 -16 -25 91
-68 125 -50 24 13 25 58 2 65 -36 11 -47 21 -57 51 -18 51 -26 49 -26 -5z"/>
<path d="M8080 5340 c-40 -10 -60 -33 -60 -70 0 -80 96 -55 129 33 18 47 5 54
-69 37z"/>
<path d="M1172 5303 c21 -20 40 -34 44 -31 7 7 -56 67 -71 68 -5 0 7 -17 27
-37z"/>
<path d="M6128 5302 c-9 -20 -25 -49 -34 -64 -22 -33 -12 -48 16 -23 22 20 43
76 38 105 -2 15 -7 12 -20 -18z"/>
<path d="M7284 5288 c9 -53 26 -75 26 -32 0 40 -10 74 -22 74 -7 0 -8 -16 -4
-42z"/>
<path d="M7222 5290 c0 -19 2 -27 5 -17 2 9 2 25 0 35 -3 9 -5 1 -5 -18z"/>
<path d="M1743 5256 c-39 -43 -42 -59 -11 -54 24 3 51 48 46 75 -2 12 -11 7
-35 -21z"/>
<path d="M6663 5269 c1 -7 -14 -16 -33 -21 -19 -5 -45 -20 -57 -34 -23 -25
-31 -74 -13 -74 6 0 10 9 10 19 0 51 66 67 99 25 40 -51 22 -128 -41 -178
l-33 -26 27 0 c33 0 75 47 84 96 4 20 4 63 0 96 l-6 60 39 -49 c55 -69 68 -78
149 -102 146 -44 205 -37 302 34 l48 35 16 -48 c24 -73 66 -132 135 -192 93
-83 89 -97 -71 -214 -37 -27 -67 -51 -65 -52 1 -1 31 4 66 10 58 11 67 15 84
46 11 19 41 58 67 86 62 66 163 219 183 278 27 79 -2 51 -47 -46 -24 -51 -53
-103 -65 -115 -42 -45 -86 -26 -159 69 -72 94 -112 169 -112 210 0 21 -4 38
-9 38 -4 0 -21 -18 -36 -40 -44 -63 -170 -110 -258 -96 -55 9 -135 50 -177 91
-51 49 -116 105 -124 105 -3 0 -5 -5 -3 -11z"/>
<path d="M7130 5240 c0 -22 5 -40 10 -40 6 0 10 18 10 40 0 22 -4 40 -10 40
-5 0 -10 -18 -10 -40z"/>
<path d="M1213 5232 c-10 -7 -10 -11 0 -24 14 -19 135 -98 149 -98 16 0 -56
92 -87 111 -33 21 -44 23 -62 11z"/>
<path d="M8021 5141 c-9 -6 2 -11 38 -16 37 -5 56 -13 66 -29 15 -22 93 -72
100 -64 11 10 -39 69 -72 86 -46 24 -113 35 -132 23z"/>
<path d="M7370 5121 c0 -20 27 -48 37 -37 8 7 -17 56 -29 56 -4 0 -8 -8 -8
-19z"/>
<path d="M1830 5100 c0 -16 5 -30 10 -30 6 0 10 14 10 30 0 17 -4 30 -10 30
-5 0 -10 -13 -10 -30z"/>
<path d="M6046 5104 c-21 -21 -20 -47 2 -68 18 -15 20 -15 35 2 9 10 20 33 23
50 6 29 4 32 -19 32 -14 0 -33 -7 -41 -16z"/>
<path d="M7789 5074 c-7 -9 -37 -31 -66 -50 -54 -35 -63 -48 -39 -57 21 -8 93
13 111 33 19 21 32 90 18 90 -6 0 -17 -7 -24 -16z"/>
<path d="M7200 5025 c9 -40 17 -52 26 -42 10 9 -9 70 -23 74 -8 3 -9 -6 -3
-32z"/>
<path d="M5888 5038 c-36 -13 -35 -24 5 -48 34 -21 92 -27 102 -10 11 17 -5
49 -28 55 -43 13 -52 13 -79 3z"/>
<path d="M1824 4935 c-7 -19 -14 -55 -14 -81 l0 -47 39 6 c45 6 66 -6 80 -45
13 -35 3 -41 -55 -32 -42 6 -46 5 -41 -12 4 -11 9 -32 13 -49 4 -16 12 -33 17
-36 5 -4 44 -5 87 -2 72 5 80 4 126 -23 47 -28 54 -29 169 -28 143 1 315 37
315 65 0 13 -20 11 -91 -7 -66 -17 -324 -24 -366 -10 -31 10 -29 32 5 44 25 8
24 9 -23 16 -71 11 -145 55 -145 86 0 19 141 3 231 -25 11 -4 19 -2 19 3 0 5
-37 20 -82 31 -204 54 -186 44 -218 116 -16 36 -34 65 -40 65 -6 0 -18 -16
-26 -35z"/>
<path d="M2600 4960 c0 -5 14 -10 30 -10 17 0 30 5 30 10 0 6 -13 10 -30 10
-16 0 -30 -4 -30 -10z"/>
<path d="M6126 4905 c-8 -8 -24 -15 -36 -15 -21 0 -21 -3 -15 -64 7 -59 5 -65
-16 -80 l-23 -16 30 0 c46 0 74 25 74 66 0 49 14 71 60 94 22 11 40 23 40 25
0 13 -100 4 -114 -10z"/>
<path d="M5723 4895 c-15 -29 -25 -87 -14 -80 5 3 15 21 21 40 14 41 9 70 -7
40z"/>
<path d="M7280 4842 c0 -23 19 -42 42 -42 22 0 23 9 2 38 -18 27 -44 29 -44 4z"/>
<path d="M1652 4828 c2 -6 29 -29 60 -51 65 -46 100 -47 51 0 -33 31 -117 70
-111 51z"/>
<path d="M2437 4786 c-7 -18 20 -42 57 -52 l28 -7 -17 27 c-16 23 -44 46 -58
46 -3 0 -7 -6 -10 -14z"/>
<path d="M5686 4759 c-3 -8 -6 -27 -8 -44 -2 -22 -8 -29 -20 -27 -22 4 -22 7
2 -64 13 -36 36 -75 59 -99 21 -22 78 -95 126 -163 48 -67 92 -125 98 -129 13
-8 13 -8 -96 157 -96 144 -147 241 -147 278 0 27 22 29 58 4 52 -36 57 -36 25
3 -52 66 -92 100 -97 84z"/>
<path d="M6990 4729 c-12 -16 -20 -32 -17 -35 6 -6 47 45 47 57 0 16 -8 10
-30 -22z"/>
<path d="M6666 4724 c-11 -8 -30 -14 -43 -14 -24 0 -29 -15 -13 -40 8 -12 16
-9 47 22 38 38 43 58 9 32z"/>
<path d="M2890 4695 c0 -23 72 -94 78 -77 4 14 -46 83 -66 90 -7 2 -12 -4 -12
-13z"/>
<path d="M1439 4641 c-18 -14 -20 -21 -11 -38 13 -24 59 -35 84 -22 16 9 17
12 3 38 -18 36 -49 44 -76 22z"/>
<path d="M6560 4615 c10 -63 22 -70 18 -11 -2 27 -8 51 -14 53 -7 3 -9 -11 -4
-42z"/>
<path d="M1597 4624 c-4 -4 -7 -11 -7 -16 0 -13 50 -6 53 7 2 12 -36 19 -46 9z"/>
<path d="M1355 4611 c-10 -17 15 -45 29 -31 7 7 5 15 -6 26 -11 11 -18 13 -23
5z"/>
<path d="M6790 4610 c0 -5 12 -10 26 -10 14 0 23 4 19 10 -3 6 -15 10 -26 10
-10 0 -19 -4 -19 -10z"/>
<path d="M7140 4610 c0 -5 9 -10 20 -10 11 0 20 5 20 10 0 6 -9 10 -20 10 -11
0 -20 -4 -20 -10z"/>
<path d="M6873 4577 c-21 -19 -45 -36 -53 -39 -14 -5 -76 -116 -68 -123 2 -2
33 19 71 46 43 32 67 56 67 69 0 28 27 38 121 47 l84 7 -70 12 c-102 18 -111
17 -152 -19z"/>
<path d="M4278 4589 c-7 -20 1 -39 18 -39 18 0 18 11 1 34 -11 15 -15 16 -19
5z"/>
<path d="M6250 4542 c0 -11 100 -86 106 -79 9 9 -14 44 -42 66 -26 21 -64 28
-64 13z"/>
<path d="M6093 4533 c9 -2 25 -2 35 0 9 3 1 5 -18 5 -19 0 -27 -2 -17 -5z"/>
<path d="M2850 4511 c0 -12 29 -35 36 -28 11 10 -5 37 -21 37 -8 0 -15 -4 -15
-9z"/>
<path d="M4238 4453 c50 -60 82 -120 82 -153 0 -43 20 -99 33 -94 12 4 57 65
57 77 0 3 -7 4 -15 1 -12 -5 -15 11 -17 92 l-3 99 -70 12 c-112 19 -111 19
-67 -34z"/>
<path d="M3020 4440 c0 -18 4 -29 10 -25 6 3 10 15 10 25 0 10 -4 22 -10 25
-6 4 -10 -7 -10 -25z"/>
<path d="M4110 4435 c-22 -23 -22 -26 -7 -43 10 -10 17 -26 17 -36 0 -26 19
-56 35 -56 34 0 48 97 19 138 -20 28 -35 28 -64 -3z"/>
<path d="M5680 4400 c0 -16 5 -30 10 -30 6 0 10 14 10 30 0 17 -4 30 -10 30
-5 0 -10 -13 -10 -30z"/>
<path d="M4641 4357 c-6 -35 -11 -83 -11 -106 0 -37 2 -42 18 -36 9 4 34 9 55
12 20 3 37 11 37 18 0 24 -22 73 -34 78 -7 3 -19 26 -27 51 -7 25 -16 46 -20
46 -4 0 -12 -28 -18 -63z"/>
<path d="M2856 4333 c21 -83 104 -268 111 -247 6 17 -45 183 -70 227 -27 50
-51 62 -41 20z"/>
<path d="M1832 4327 c-12 -13 -22 -29 -22 -35 0 -21 29 -13 46 14 24 35 5 52
-24 21z"/>
<path d="M2586 4299 c-15 -17 -34 -45 -43 -63 l-15 -31 33 32 c39 37 75 93 60
93 -5 0 -21 -14 -35 -31z"/>
<path d="M2340 4313 c0 -4 21 -35 45 -67 57 -75 57 -98 3 -155 -25 -25 -35
-41 -25 -37 36 12 67 18 67 13 0 -3 -10 -22 -21 -42 -15 -25 -19 -39 -11 -47
14 -14 28 -3 58 43 14 22 31 42 39 44 51 16 49 13 31 41 -10 15 -14 33 -10 46
4 14 3 18 -5 14 -23 -15 -50 7 -92 70 -37 57 -79 99 -79 77z"/>
<path d="M2092 4284 c-30 -21 -29 -65 4 -104 31 -37 62 -37 82 0 14 28 10 84
-9 106 -15 18 -49 18 -77 -2z"/>
<path d="M3170 4282 c-27 -9 -50 -35 -50 -57 0 -23 35 -75 50 -75 20 0 41 122
23 133 -5 2 -15 2 -23 -1z"/>
<path d="M5709 4280 c-3 -33 3 -86 12 -102 11 -20 27 -23 49 -8 13 9 12 13 -9
30 -13 11 -29 37 -37 58 -7 20 -14 30 -15 22z"/>
<path d="M3000 4217 c0 -3 5 -30 11 -59 9 -42 13 -49 19 -32 10 26 2 70 -16
85 -8 6 -14 9 -14 6z"/>
<path d="M1865 4181 c-15 -25 54 -224 123 -356 27 -51 42 -70 57 -70 17 0 19
6 17 34 -12 122 -169 436 -197 392z"/>
<path d="M3845 4146 c47 -41 70 -50 59 -23 -5 13 -85 67 -100 67 -5 0 14 -20
41 -44z"/>
<path d="M5979 4175 c15 -31 59 -81 65 -75 3 3 -13 26 -35 50 -22 25 -35 36
-30 25z"/>
<path d="M3957 4113 c-13 -13 -6 -23 35 -53 51 -37 68 -38 68 -4 0 45 -17 64
-59 64 -21 0 -41 -3 -44 -7z"/>
<path d="M4178 4108 c-42 -32 -49 -105 -14 -145 20 -23 28 -26 42 -17 27 16
27 29 0 62 -14 16 -27 40 -28 53 -3 21 1 24 25 21 23 -3 28 0 25 15 -4 22 -28
28 -50 11z"/>
<path d="M6645 4109 c-16 -4 -46 -11 -66 -14 -44 -7 -85 -45 -109 -100 -34
-80 -72 -295 -52 -295 22 0 82 86 152 218 40 75 84 152 98 169 26 35 25 36
-23 22z"/>
<path d="M3555 4023 c29 -70 110 -194 160 -247 68 -71 122 -95 242 -108 54 -6
104 -14 112 -18 8 -4 22 -27 30 -51 12 -32 23 -45 39 -47 57 -8 -7 117 -70
136 -18 6 -69 13 -113 17 -158 12 -255 84 -345 256 -50 97 -86 136 -55 62z"/>
<path d="M6067 4044 c11 -31 54 -96 59 -91 7 7 -31 81 -50 97 -14 11 -16 10
-9 -6z"/>
<path d="M2970 4041 c0 -10 78 -111 85 -111 10 0 -27 75 -47 97 -22 24 -38 30
-38 14z"/>
<path d="M2621 3993 c6 -18 15 -33 20 -33 15 0 10 16 -11 41 l-20 24 11 -32z"/>
<path d="M5558 3988 c-3 -18 -2 -44 3 -58 5 -19 7 -11 8 33 1 63 -4 75 -11 25z"/>
<path d="M2302 3970 c-9 -16 -26 -20 -89 -22 -43 -2 -78 -7 -77 -13 2 -25 57
-50 109 -50 59 0 95 22 95 60 0 34 -23 49 -38 25z"/>
<path d="M6010 3863 c-1 -52 -36 -108 -109 -173 -39 -35 -71 -67 -71 -70 0 -4
23 -6 51 -6 44 1 54 -3 75 -27 13 -15 24 -40 24 -55 1 -72 53 -66 58 7 2 30
-4 52 -22 83 l-25 42 24 28 c41 48 51 99 31 153 -20 51 -36 59 -36 18z"/>
<path d="M3090 3874 c0 -6 29 -44 64 -85 69 -80 176 -187 176 -177 0 11 -142
178 -194 228 -25 24 -46 39 -46 34z"/>
<path d="M5570 3815 c0 -14 5 -25 10 -25 6 0 10 11 10 25 0 14 -4 25 -10 25
-5 0 -10 -11 -10 -25z"/>
<path d="M2164 3779 c-17 -19 -17 -23 -3 -47 17 -32 50 -39 73 -17 25 26 20
64 -10 75 -35 14 -38 13 -60 -11z"/>
<path d="M5213 3725 c0 -22 2 -30 4 -17 2 12 2 30 0 40 -3 9 -5 -1 -4 -23z"/>
<path d="M6782 3689 c-31 -60 -32 -66 -32 -188 0 -184 21 -195 55 -31 18 87
31 280 18 280 -5 0 -24 -28 -41 -61z"/>
<path d="M5531 3710 c1 -19 7 -57 15 -85 l13 -50 -4 68 c-5 74 -25 131 -24 67z"/>
<path d="M3100 3728 c0 -19 84 -225 101 -250 19 -26 23 -28 31 -14 12 21 24
20 114 -10 42 -14 81 -23 87 -21 15 5 -88 66 -124 73 -15 3 -32 17 -38 30 -10
24 -20 28 -53 25 -13 -2 -18 5 -18 25 0 14 -16 47 -35 74 -33 45 -65 78 -65
68z"/>
<path d="M2714 3639 c-16 -5 -41 -20 -53 -33 l-24 -25 37 10 c46 13 110 -4
131 -34 20 -29 20 -116 -2 -146 -16 -23 -15 -25 7 -43 33 -27 52 -19 77 32 31
63 29 99 -9 156 -47 70 -106 100 -164 83z"/>
<path d="M7273 3540 c0 -47 2 -66 4 -42 2 23 2 61 0 85 -2 23 -4 4 -4 -43z"/>
<path d="M4433 3490 c0 -25 2 -35 4 -22 2 12 2 32 0 45 -2 12 -4 2 -4 -23z"/>
<path d="M5650 3525 c-1 -28 88 -245 184 -450 36 -77 66 -148 66 -157 0 -29
-25 -21 -63 21 -57 63 -83 116 -166 346 -44 120 -85 223 -91 229 -8 8 -10 7
-6 -4 3 -8 39 -121 82 -250 51 -158 97 -276 139 -360 68 -136 135 -297 135
-324 0 -10 11 -32 24 -49 14 -18 59 -101 102 -185 125 -248 106 -184 -47 160
-127 284 -159 361 -154 366 11 11 54 -11 89 -45 82 -81 117 -164 81 -193 -22
-18 -11 -24 15 -8 19 12 24 10 46 -17 32 -38 129 -239 182 -375 76 -195 102
-332 102 -531 0 -82 -3 -99 -20 -119 -14 -16 -20 -38 -20 -74 -1 -28 -7 -69
-15 -91 -8 -21 -13 -40 -12 -42 2 -1 16 11 33 26 27 25 32 40 42 113 7 46 12
151 13 233 0 240 -37 377 -191 705 -92 196 -107 237 -91 253 7 7 56 11 139 10
l127 -1 -94 19 c-96 19 -119 31 -126 65 -2 10 -4 21 -4 23 -1 2 -9 -6 -18 -18
-16 -18 -23 -20 -53 -11 -19 5 -48 21 -65 35 -41 33 -22 45 74 45 68 0 107 9
216 47 97 35 265 170 364 293 41 50 38 48 -40 -26 -104 -99 -178 -154 -277
-205 -94 -48 -159 -67 -254 -75 -131 -11 -152 8 -264 232 -37 73 -54 121 -52
139 l3 27 30 -23 c30 -25 29 -20 -15 46 -15 22 -35 61 -46 87 -21 53 -31 60
-36 26 -3 -19 -10 -12 -35 37 -18 33 -32 55 -33 50z m99 -166 c14 -41 14 -56
1 -43 -14 14 -31 74 -20 74 4 0 13 -14 19 -31z m339 -601 c16 -16 15 -48 -2
-48 -20 0 -39 27 -32 45 7 18 18 19 34 3z"/>
<path d="M3170 3396 c0 -34 18 -69 31 -61 16 10 10 51 -11 70 -20 18 -20 17
-20 -9z"/>
<path d="M3771 3405 c17 -17 79 -38 79 -26 0 9 -65 41 -82 41 -8 0 -7 -5 3
-15z"/>
<path d="M4454 3338 c3 -31 11 -67 16 -80 8 -18 9 -8 5 40 -3 35 -10 71 -16
80 -8 13 -9 3 -5 -40z"/>
<path d="M7241 3340 c0 -33 1 -34 10 -11 6 16 6 28 -1 35 -7 7 -10 -1 -9 -24z"/>
<path d="M3044 3336 c-7 -19 3 -36 22 -36 10 0 14 8 12 22 -4 26 -26 36 -34
14z"/>
<path d="M6090 3280 c-55 -50 -55 -63 0 -35 25 13 30 13 44 0 13 -13 14 -9 13
35 -1 27 -2 50 -2 49 0 0 -25 -22 -55 -49z"/>
<path d="M3280 3296 c0 -17 35 -30 51 -20 9 5 6 11 -6 21 -24 17 -45 17 -45
-1z"/>
<path d="M7209 3233 c-5 -16 -12 -34 -14 -40 -2 -7 0 -13 5 -13 6 0 10 2 10 4
0 2 7 20 15 40 9 22 11 36 5 36 -6 0 -15 -12 -21 -27z"/>
<path d="M2556 3242 c-10 -17 37 -93 66 -108 60 -31 62 16 4 79 -32 36 -59 46
-70 29z"/>
<path d="M5950 3210 c0 -5 9 -10 20 -10 11 0 20 5 20 10 0 6 -9 10 -20 10 -11
0 -20 -4 -20 -10z"/>
<path d="M2957 3185 c-15 -7 -52 -35 -84 -60 -82 -67 -127 -88 -173 -80 -33 6
-42 2 -74 -25 -36 -32 -48 -70 -22 -70 16 0 146 54 226 95 77 39 137 82 157
111 21 33 6 48 -30 29z"/>
<path d="M3324 3145 c-14 -35 41 -60 65 -31 10 11 7 17 -11 30 -28 20 -47 20
-54 1z"/>
<path d="M6163 3125 c0 -22 2 -30 4 -17 2 12 2 30 0 40 -3 9 -5 -1 -4 -23z"/>
<path d="M4525 3080 c61 -172 141 -319 234 -429 47 -56 211 -204 218 -198 2 2
-35 42 -83 88 -144 140 -236 276 -329 486 -58 131 -76 155 -40 53z"/>
<path d="M7157 3105 c-21 -44 -22 -67 -2 -38 20 29 36 73 27 73 -5 0 -16 -16
-25 -35z"/>
<path d="M2426 3121 c-4 -5 -3 -16 0 -25 4 -10 1 -16 -9 -16 -18 0 -31 -30
-18 -43 17 -17 44 -2 53 28 12 45 -8 86 -26 56z"/>
<path d="M7088 2988 c-38 -51 -44 -65 -19 -43 31 27 65 75 53 75 -5 0 -21 -15
-34 -32z"/>
<path d="M2500 2865 c0 -14 5 -25 10 -25 6 0 10 11 10 25 0 14 -4 25 -10 25
-5 0 -10 -11 -10 -25z"/>
<path d="M5380 2750 c0 -27 8 -56 19 -73 18 -27 111 -101 118 -94 3 4 -111
183 -128 202 -5 5 -9 -9 -9 -35z"/>
<path d="M6579 2701 c12 -8 7 -20 -26 -63 -44 -58 -77 -117 -70 -124 3 -3 16
14 30 38 67 114 157 144 290 99 58 -20 79 -14 30 8 -70 32 -297 69 -254 42z"/>
<path d="M6908 2594 c13 -24 40 -49 47 -42 3 2 -9 18 -26 34 -24 22 -29 24
-21 8z"/>
<path d="M6464 2410 c10 -65 56 -137 139 -217 53 -52 79 -71 93 -67 53 14 178
123 161 140 -4 4 -58 -3 -121 -16 -98 -20 -118 -22 -145 -10 -40 16 -65 51
-97 137 -31 83 -39 92 -30 33z"/>
<path d="M7000 2334 c0 -14 4 -23 10 -19 6 3 10 15 10 26 0 10 -4 19 -10 19
-5 0 -10 -12 -10 -26z"/>
<path d="M6165 2110 c6 -39 25 -66 25 -34 -1 10 -8 30 -16 44 l-15 25 6 -35z"/>
<path d="M6889 2007 c-38 -48 -46 -65 -20 -42 29 25 65 75 54 75 -4 0 -20 -15
-34 -33z"/>
<path d="M5784 1979 c-8 -13 13 -29 38 -29 28 0 29 16 2 29 -31 14 -31 14 -40
0z"/>
<path d="M6735 1859 c-45 -30 -74 -54 -67 -57 15 -5 152 84 152 99 0 13 3 14
-85 -42z"/>
<path d="M6010 1884 c0 -9 9 -18 20 -21 12 -3 31 -28 47 -62 17 -35 28 -50 31
-39 4 20 -18 65 -54 107 -28 34 -44 40 -44 15z"/>
<path d="M5621 1863 c-12 -14 -19 -28 -16 -31 5 -5 44 38 45 51 0 13 -8 7 -29
-20z"/>
<path d="M6267 1823 c-17 -16 5 -83 27 -83 8 0 8 38 0 68 -6 22 -15 27 -27 15z"/>
<path d="M6107 1640 c-22 -77 -49 -115 -117 -165 -28 -21 -49 -39 -47 -41 2
-3 24 4 48 14 87 38 143 125 137 213 l-3 44 -18 -65z"/>
<path d="M5810 1608 c0 -55 18 -103 50 -133 36 -35 38 -27 5 23 -13 20 -29 61
-35 90 -13 60 -20 66 -20 20z"/>
<path d="M5518 1595 c-4 -11 -9 -47 -13 -80 -11 -114 45 -249 136 -326 63 -52
70 -49 19 9 -80 90 -120 190 -129 322 -4 53 -9 86 -13 75z"/>
<path d="M5252 1583 c-20 -8 -42 -59 -42 -97 0 -25 6 -39 22 -50 27 -19 36
-13 14 9 -25 25 -20 79 10 114 25 30 24 35 -4 24z"/>
<path d="M5410 1553 c0 -5 11 -20 25 -33 14 -13 25 -19 25 -13 0 5 -11 20 -25
33 -14 13 -25 19 -25 13z"/>
<path d="M6230 1269 c-12 -16 -20 -32 -17 -35 6 -6 47 45 47 57 0 16 -8 10
-30 -22z"/>
<path d="M6383 1235 c0 -33 2 -45 4 -27 2 18 2 45 0 60 -2 15 -4 0 -4 -33z"/>
<path d="M6000 1100 c-24 -24 -26 -40 -6 -40 14 0 46 36 46 52 0 14 -20 8 -40
-12z"/>
<path d="M5755 975 c-5 -2 -31 -6 -56 -10 -26 -3 -55 -13 -65 -21 -17 -14 -9
-15 89 -10 105 6 108 5 116 -16 8 -22 9 -21 25 10 9 18 14 37 11 42 -6 9 -97
13 -120 5z"/>
<path d="M6383 870 c0 -36 2 -50 4 -32 2 17 2 47 0 65 -2 17 -4 3 -4 -33z"/>
<path d="M6010 841 c0 -11 50 -44 57 -38 6 7 -34 47 -47 47 -5 0 -10 -4 -10
-9z"/>
<path d="M5810 784 c0 -14 4 -23 10 -19 6 3 10 15 10 26 0 10 -4 19 -10 19 -5
0 -10 -12 -10 -26z"/>
<path d="M6046 714 c-3 -9 -6 -25 -6 -37 0 -27 16 -11 25 26 8 29 -8 39 -19
11z"/>
<path d="M6350 670 c0 -16 5 -30 10 -30 6 0 10 14 10 30 0 17 -4 30 -10 30 -5
0 -10 -13 -10 -30z"/>
<path d="M5910 622 c0 -13 25 -22 63 -22 21 0 28 3 21 10 -15 15 -84 25 -84
12z"/>
<path d="M6330 559 c0 -17 4 -28 10 -24 6 3 10 17 10 31 0 13 -4 24 -10 24 -5
0 -10 -14 -10 -31z"/>
<path d="M5840 259 c0 -8 7 -24 15 -35 11 -14 14 -15 14 -4 0 8 -6 24 -14 34
-11 15 -15 16 -15 5z"/>
<path d="M5680 142 c0 -27 46 -88 86 -112 25 -16 57 -24 107 -28 40 -2 70 -2
67 1 -3 2 -40 12 -83 21 -93 19 -129 42 -151 96 -17 43 -26 51 -26 22z"/>
<path d="M6072 90 c-45 -32 -50 -40 -29 -40 17 0 97 69 81 70 -6 0 -30 -14
-52 -30z"/>
</g>
</svg>
